%TF.GenerationSoftware,KiCad,Pcbnew,(6.0.0)*%
%TF.CreationDate,2022-03-19T17:32:23-06:00*%
%TF.ProjectId,CDH,4344482e-6b69-4636-9164-5f7063625858,v01*%
%TF.SameCoordinates,Original*%
%TF.FileFunction,Legend,Bot*%
%TF.FilePolarity,Positive*%
%FSLAX46Y46*%
G04 Gerber Fmt 4.6, Leading zero omitted, Abs format (unit mm)*
G04 Created by KiCad (PCBNEW (6.0.0)) date 2022-03-19 17:32:23*
%MOMM*%
%LPD*%
G01*
G04 APERTURE LIST*
%ADD10C,0.150000*%
%ADD11C,0.120000*%
G04 APERTURE END LIST*
D10*
%TO.C,JP1*%
X152923333Y-131712380D02*
X152923333Y-132426666D01*
X152970952Y-132569523D01*
X153066190Y-132664761D01*
X153209047Y-132712380D01*
X153304285Y-132712380D01*
X152447142Y-132712380D02*
X152447142Y-131712380D01*
X152066190Y-131712380D01*
X151970952Y-131760000D01*
X151923333Y-131807619D01*
X151875714Y-131902857D01*
X151875714Y-132045714D01*
X151923333Y-132140952D01*
X151970952Y-132188571D01*
X152066190Y-132236190D01*
X152447142Y-132236190D01*
X150923333Y-132712380D02*
X151494761Y-132712380D01*
X151209047Y-132712380D02*
X151209047Y-131712380D01*
X151304285Y-131855238D01*
X151399523Y-131950476D01*
X151494761Y-131998095D01*
D11*
X150690000Y-133760000D02*
X150690000Y-134360000D01*
X152790000Y-133060000D02*
X151390000Y-133060000D01*
X151390000Y-135060000D02*
X152790000Y-135060000D01*
X153490000Y-134360000D02*
X153490000Y-133760000D01*
X153490000Y-133760000D02*
G75*
G03*
X152790000Y-133060000I-699999J1D01*
G01*
X151390000Y-133060000D02*
G75*
G03*
X150690000Y-133760000I-1J-699999D01*
G01*
X150690000Y-134360000D02*
G75*
G03*
X151390000Y-135060000I699999J-1D01*
G01*
X152790000Y-135060000D02*
G75*
G03*
X153490000Y-134360000I1J699999D01*
G01*
%TD*%
M02*
