%TF.GenerationSoftware,KiCad,Pcbnew,(6.0.0)*%
%TF.CreationDate,2022-03-19T17:32:23-06:00*%
%TF.ProjectId,CDH,4344482e-6b69-4636-9164-5f7063625858,v01*%
%TF.SameCoordinates,Original*%
%TF.FileFunction,Soldermask,Top*%
%TF.FilePolarity,Negative*%
%FSLAX46Y46*%
G04 Gerber Fmt 4.6, Leading zero omitted, Abs format (unit mm)*
G04 Created by KiCad (PCBNEW (6.0.0)) date 2022-03-19 17:32:23*
%MOMM*%
%LPD*%
G01*
G04 APERTURE LIST*
G04 Aperture macros list*
%AMRoundRect*
0 Rectangle with rounded corners*
0 $1 Rounding radius*
0 $2 $3 $4 $5 $6 $7 $8 $9 X,Y pos of 4 corners*
0 Add a 4 corners polygon primitive as box body*
4,1,4,$2,$3,$4,$5,$6,$7,$8,$9,$2,$3,0*
0 Add four circle primitives for the rounded corners*
1,1,$1+$1,$2,$3*
1,1,$1+$1,$4,$5*
1,1,$1+$1,$6,$7*
1,1,$1+$1,$8,$9*
0 Add four rect primitives between the rounded corners*
20,1,$1+$1,$2,$3,$4,$5,0*
20,1,$1+$1,$4,$5,$6,$7,0*
20,1,$1+$1,$6,$7,$8,$9,0*
20,1,$1+$1,$8,$9,$2,$3,0*%
%AMFreePoly0*
4,1,22,0.500000,-0.750000,0.000000,-0.750000,0.000000,-0.745033,-0.079941,-0.743568,-0.215256,-0.701293,-0.333266,-0.622738,-0.424486,-0.514219,-0.481581,-0.384460,-0.499164,-0.250000,-0.500000,-0.250000,-0.500000,0.250000,-0.499164,0.250000,-0.499963,0.256109,-0.478152,0.396186,-0.417904,0.524511,-0.324060,0.630769,-0.204165,0.706417,-0.067858,0.745374,0.000000,0.744959,0.000000,0.750000,
0.500000,0.750000,0.500000,-0.750000,0.500000,-0.750000,$1*%
%AMFreePoly1*
4,1,20,0.000000,0.744959,0.073905,0.744508,0.209726,0.703889,0.328688,0.626782,0.421226,0.519385,0.479903,0.390333,0.500000,0.250000,0.500000,-0.250000,0.499851,-0.262216,0.476331,-0.402017,0.414519,-0.529596,0.319384,-0.634700,0.198574,-0.708877,0.061801,-0.746166,0.000000,-0.745033,0.000000,-0.750000,-0.500000,-0.750000,-0.500000,0.750000,0.000000,0.750000,0.000000,0.744959,
0.000000,0.744959,$1*%
G04 Aperture macros list end*
%ADD10R,1.308000X1.308000*%
%ADD11C,1.308000*%
%ADD12C,1.100000*%
%ADD13RoundRect,0.237500X-0.250000X-0.237500X0.250000X-0.237500X0.250000X0.237500X-0.250000X0.237500X0*%
%ADD14RoundRect,0.237500X0.237500X-0.250000X0.237500X0.250000X-0.237500X0.250000X-0.237500X-0.250000X0*%
%ADD15C,3.000000*%
%ADD16RoundRect,0.237500X0.250000X0.237500X-0.250000X0.237500X-0.250000X-0.237500X0.250000X-0.237500X0*%
%ADD17R,0.650000X0.400000*%
%ADD18RoundRect,0.218750X0.256250X-0.218750X0.256250X0.218750X-0.256250X0.218750X-0.256250X-0.218750X0*%
%ADD19R,2.290000X3.000000*%
%ADD20RoundRect,0.150000X-0.825000X-0.150000X0.825000X-0.150000X0.825000X0.150000X-0.825000X0.150000X0*%
%ADD21RoundRect,0.218750X-0.218750X-0.256250X0.218750X-0.256250X0.218750X0.256250X-0.218750X0.256250X0*%
%ADD22RoundRect,0.225000X0.225000X0.250000X-0.225000X0.250000X-0.225000X-0.250000X0.225000X-0.250000X0*%
%ADD23RoundRect,0.225000X0.250000X-0.225000X0.250000X0.225000X-0.250000X0.225000X-0.250000X-0.225000X0*%
%ADD24RoundRect,0.150000X0.875000X0.150000X-0.875000X0.150000X-0.875000X-0.150000X0.875000X-0.150000X0*%
%ADD25R,1.750000X0.400000*%
%ADD26R,2.000000X1.300000*%
%ADD27O,1.700000X1.300000*%
%ADD28R,1.400000X2.000000*%
%ADD29R,2.500000X1.425000*%
%ADD30O,1.400000X1.000000*%
%ADD31R,0.700000X1.825000*%
%ADD32FreePoly0,0.000000*%
%ADD33FreePoly1,0.000000*%
%ADD34R,0.300000X0.300000*%
%ADD35C,6.100000*%
%ADD36R,0.700000X0.200000*%
%ADD37RoundRect,0.200000X-0.200000X-0.275000X0.200000X-0.275000X0.200000X0.275000X-0.200000X0.275000X0*%
%ADD38R,1.700000X1.700000*%
%ADD39O,1.700000X1.700000*%
G04 APERTURE END LIST*
D10*
%TO.C,P2*%
X149210000Y-64565000D03*
D11*
X147210000Y-64565000D03*
X145210000Y-64565000D03*
X143210000Y-64565000D03*
D12*
X141710000Y-62465000D03*
X150710000Y-62465000D03*
%TD*%
D10*
%TO.C,P1*%
X134570000Y-64535000D03*
D11*
X132570000Y-64535000D03*
X130570000Y-64535000D03*
X128570000Y-64535000D03*
D12*
X127070000Y-62435000D03*
X136070000Y-62435000D03*
%TD*%
D13*
%TO.C,R7*%
X125175000Y-134000000D03*
X127000000Y-134000000D03*
%TD*%
D14*
%TO.C,R2*%
X172480000Y-81522500D03*
X172480000Y-79697500D03*
%TD*%
D13*
%TO.C,R3*%
X157437500Y-75247500D03*
X159262500Y-75247500D03*
%TD*%
D15*
%TO.C,H4*%
X110640000Y-141850000D03*
%TD*%
D16*
%TO.C,R8*%
X127000000Y-131000000D03*
X125175000Y-131000000D03*
%TD*%
D15*
%TO.C,H2*%
X190340000Y-60150000D03*
%TD*%
D17*
%TO.C,U1*%
X163250000Y-86210000D03*
X163250000Y-86860000D03*
X163250000Y-87510000D03*
X165150000Y-87510000D03*
X165150000Y-86210000D03*
%TD*%
D15*
%TO.C,H1*%
X110640000Y-60150000D03*
%TD*%
D18*
%TO.C,D1*%
X176520000Y-81305000D03*
X176520000Y-79730000D03*
%TD*%
D19*
%TO.C,U1*%
X185190000Y-93250000D03*
D20*
X187665000Y-91345000D03*
X187665000Y-92615000D03*
X187665000Y-93885000D03*
X187665000Y-95155000D03*
X182715000Y-95155000D03*
X182715000Y-93885000D03*
X182715000Y-92615000D03*
X182715000Y-91345000D03*
%TD*%
D15*
%TO.C,H3*%
X190340000Y-141850000D03*
%TD*%
D17*
%TO.C,U4*%
X163600000Y-75267500D03*
X163600000Y-76567500D03*
X161700000Y-76567500D03*
X161700000Y-75917500D03*
X161700000Y-75267500D03*
%TD*%
D21*
%TO.C,D2*%
X157432500Y-77797500D03*
X159007500Y-77797500D03*
%TD*%
D22*
%TO.C,C2*%
X157870000Y-106875000D03*
X156320000Y-106875000D03*
%TD*%
D23*
%TO.C,C3*%
X177560000Y-94065000D03*
X177560000Y-92515000D03*
%TD*%
D24*
%TO.C,U3*%
X172130000Y-104730000D03*
X172130000Y-103460000D03*
X172130000Y-102190000D03*
X172130000Y-100920000D03*
X172130000Y-99650000D03*
X172130000Y-98380000D03*
X172130000Y-97110000D03*
X172130000Y-95840000D03*
X172130000Y-94570000D03*
X162830000Y-94570000D03*
X162830000Y-95840000D03*
X162830000Y-97110000D03*
X162830000Y-98380000D03*
X162830000Y-99650000D03*
X162830000Y-100920000D03*
X162830000Y-102190000D03*
X162830000Y-103460000D03*
X162830000Y-104730000D03*
%TD*%
D25*
%TO.C,J4*%
X111820000Y-130700000D03*
X111820000Y-131350000D03*
X111820000Y-132000000D03*
X111820000Y-132650000D03*
X111820000Y-133300000D03*
D26*
X109930000Y-129275000D03*
D27*
X109000000Y-134725000D03*
D28*
X112060000Y-129150000D03*
D29*
X108750000Y-132962500D03*
D30*
X112030000Y-134425000D03*
D31*
X110700000Y-134987500D03*
D26*
X109930000Y-134725000D03*
D29*
X108750000Y-131037500D03*
D28*
X112060000Y-134900000D03*
D30*
X112030000Y-129575000D03*
D27*
X109000000Y-129275000D03*
D31*
X110700000Y-129012500D03*
%TD*%
D32*
%TO.C,JP1*%
X156140000Y-134050000D03*
D33*
X157440000Y-134050000D03*
%TD*%
D22*
%TO.C,C1*%
X157870000Y-104365000D03*
X156320000Y-104365000D03*
%TD*%
D34*
%TO.C,U2*%
X116525000Y-132040000D03*
X116525000Y-131340000D03*
X115675000Y-131690000D03*
%TD*%
D35*
%TO.C,Module1*%
X150430000Y-73880000D03*
X117430000Y-121880000D03*
X117430000Y-73880000D03*
X150430000Y-121880000D03*
D36*
X152430000Y-105180000D03*
X149350000Y-105180000D03*
X152430000Y-104780000D03*
X149350000Y-104780000D03*
X152430000Y-104380000D03*
X149350000Y-104380000D03*
X152430000Y-103980000D03*
X149350000Y-103980000D03*
X152430000Y-103580000D03*
X149350000Y-103580000D03*
X152430000Y-103180000D03*
X149350000Y-103180000D03*
X152430000Y-102780000D03*
X149350000Y-102780000D03*
X152430000Y-102380000D03*
X149350000Y-102380000D03*
X152430000Y-101980000D03*
X149350000Y-101980000D03*
X152430000Y-101580000D03*
X149350000Y-101580000D03*
X152430000Y-101180000D03*
X149350000Y-101180000D03*
X152430000Y-100780000D03*
X149350000Y-100780000D03*
X152430000Y-100380000D03*
X149350000Y-100380000D03*
X152430000Y-99980000D03*
X149350000Y-99980000D03*
X152430000Y-99580000D03*
X149350000Y-99580000D03*
X152430000Y-99180000D03*
X149350000Y-99180000D03*
X152430000Y-98780000D03*
X149350000Y-98780000D03*
X152430000Y-98380000D03*
X149350000Y-98380000D03*
X152430000Y-97980000D03*
X149350000Y-97980000D03*
X152430000Y-97580000D03*
X149350000Y-97580000D03*
X152430000Y-97180000D03*
X149350000Y-97180000D03*
X152430000Y-96780000D03*
X149350000Y-96780000D03*
X152430000Y-96380000D03*
X149350000Y-96380000D03*
X152430000Y-95980000D03*
X149350000Y-95980000D03*
X152430000Y-95580000D03*
X149350000Y-95580000D03*
X152430000Y-95180000D03*
X149350000Y-95180000D03*
X152430000Y-94780000D03*
X149350000Y-94780000D03*
X152430000Y-94380000D03*
X149350000Y-94380000D03*
X152430000Y-93980000D03*
X149350000Y-93980000D03*
X152430000Y-93580000D03*
X149350000Y-93580000D03*
X152430000Y-93180000D03*
X149350000Y-93180000D03*
X152430000Y-92780000D03*
X149350000Y-92780000D03*
X152430000Y-92380000D03*
X149350000Y-92380000D03*
X152430000Y-91980000D03*
X149350000Y-91980000D03*
X152430000Y-91580000D03*
X149350000Y-91580000D03*
X152430000Y-91180000D03*
X149350000Y-91180000D03*
X152430000Y-90780000D03*
X149350000Y-90780000D03*
X152430000Y-90380000D03*
X149350000Y-90380000D03*
X152430000Y-89980000D03*
X149350000Y-89980000D03*
X152430000Y-89580000D03*
X149350000Y-89580000D03*
X152430000Y-89180000D03*
X149350000Y-89180000D03*
X152430000Y-88780000D03*
X149350000Y-88780000D03*
X152430000Y-88380000D03*
X149350000Y-88380000D03*
X152430000Y-87980000D03*
X149350000Y-87980000D03*
X152430000Y-87580000D03*
X149350000Y-87580000D03*
X152430000Y-87180000D03*
X149350000Y-87180000D03*
X152430000Y-86780000D03*
X149350000Y-86780000D03*
X152430000Y-86380000D03*
X149350000Y-86380000D03*
X152430000Y-85980000D03*
X149350000Y-85980000D03*
X152430000Y-85580000D03*
X149350000Y-85580000D03*
X118510000Y-105180000D03*
X115430000Y-105180000D03*
X118510000Y-104780000D03*
X115430000Y-104780000D03*
X118510000Y-104380000D03*
X115430000Y-104380000D03*
X118510000Y-103980000D03*
X115430000Y-103980000D03*
X118510000Y-103580000D03*
X115430000Y-103580000D03*
X118510000Y-103180000D03*
X115430000Y-103180000D03*
X118510000Y-102780000D03*
X115430000Y-102780000D03*
X118510000Y-102380000D03*
X115430000Y-102380000D03*
X118510000Y-101980000D03*
X115430000Y-101980000D03*
X118510000Y-101580000D03*
X115430000Y-101580000D03*
X118510000Y-101180000D03*
X115430000Y-101180000D03*
X118510000Y-100780000D03*
X115430000Y-100780000D03*
X118510000Y-100380000D03*
X115430000Y-100380000D03*
X118510000Y-99980000D03*
X115430000Y-99980000D03*
X118510000Y-99580000D03*
X115430000Y-99580000D03*
X118510000Y-99180000D03*
X115430000Y-99180000D03*
X118510000Y-98780000D03*
X115430000Y-98780000D03*
X118510000Y-98380000D03*
X115430000Y-98380000D03*
X118510000Y-97980000D03*
X115430000Y-97980000D03*
X118510000Y-97580000D03*
X115430000Y-97580000D03*
X118510000Y-97180000D03*
X115430000Y-97180000D03*
X118510000Y-96780000D03*
X115430000Y-96780000D03*
X118510000Y-96380000D03*
X115430000Y-96380000D03*
X118510000Y-95980000D03*
X115430000Y-95980000D03*
X118510000Y-95580000D03*
X115430000Y-95580000D03*
X118510000Y-95180000D03*
X115430000Y-95180000D03*
X118510000Y-94780000D03*
X115430000Y-94780000D03*
X118510000Y-94380000D03*
X115430000Y-94380000D03*
X118510000Y-93980000D03*
X115430000Y-93980000D03*
X118510000Y-93580000D03*
X115430000Y-93580000D03*
X118510000Y-93180000D03*
X115430000Y-93180000D03*
X118510000Y-92780000D03*
X115430000Y-92780000D03*
X118510000Y-92380000D03*
X115430000Y-92380000D03*
X118510000Y-91980000D03*
X115430000Y-91980000D03*
X118510000Y-91580000D03*
X115430000Y-91580000D03*
X118510000Y-91180000D03*
X115430000Y-91180000D03*
X118510000Y-90780000D03*
X115430000Y-90780000D03*
X118510000Y-90380000D03*
X115430000Y-90380000D03*
X118510000Y-89980000D03*
X115430000Y-89980000D03*
X118510000Y-89580000D03*
X115430000Y-89580000D03*
X118510000Y-89180000D03*
X115430000Y-89180000D03*
X118510000Y-88780000D03*
X115430000Y-88780000D03*
X118510000Y-88380000D03*
X115430000Y-88380000D03*
X118510000Y-87980000D03*
X115430000Y-87980000D03*
X118510000Y-87580000D03*
X115430000Y-87580000D03*
X118510000Y-87180000D03*
X115430000Y-87180000D03*
X118510000Y-86780000D03*
X115430000Y-86780000D03*
X118510000Y-86380000D03*
X115430000Y-86380000D03*
X118510000Y-85980000D03*
X115430000Y-85980000D03*
X118510000Y-85580000D03*
X115430000Y-85580000D03*
%TD*%
D37*
%TO.C,R1*%
X156420000Y-100530000D03*
X158070000Y-100530000D03*
%TD*%
D38*
%TO.C,J1*%
X197260000Y-76945000D03*
D39*
X199800000Y-76945000D03*
X197260000Y-79485000D03*
X199800000Y-79485000D03*
X197260000Y-82025000D03*
X199800000Y-82025000D03*
X197260000Y-84565000D03*
X199800000Y-84565000D03*
X197260000Y-87105000D03*
X199800000Y-87105000D03*
X197260000Y-89645000D03*
X199800000Y-89645000D03*
X197260000Y-92185000D03*
X199800000Y-92185000D03*
X197260000Y-94725000D03*
X199800000Y-94725000D03*
X197260000Y-97265000D03*
X199800000Y-97265000D03*
X197260000Y-99805000D03*
X199800000Y-99805000D03*
X197260000Y-102345000D03*
X199800000Y-102345000D03*
X197260000Y-104885000D03*
X199800000Y-104885000D03*
X197260000Y-107425000D03*
X199800000Y-107425000D03*
X197260000Y-109965000D03*
X199800000Y-109965000D03*
X197260000Y-112505000D03*
X199800000Y-112505000D03*
X197260000Y-115045000D03*
X199800000Y-115045000D03*
X197260000Y-117585000D03*
X199800000Y-117585000D03*
X197260000Y-120125000D03*
X199800000Y-120125000D03*
X197260000Y-122665000D03*
X199800000Y-122665000D03*
X197260000Y-125205000D03*
X199800000Y-125205000D03*
%TD*%
M02*
