M48
; DRILL file {KiCad (6.0.0)} date Sun Apr 24 15:03:12 2022
; FORMAT={-:-/ absolute / inch / decimal}
; #@! TF.CreationDate,2022-04-24T15:03:12-06:00
; #@! TF.GenerationSoftware,Kicad,Pcbnew,(6.0.0)
; #@! TF.FileFunction,Plated,1,2,PTH
FMAT,2
INCH
; #@! TA.AperFunction,Plated,PTH,ViaDrill
T1C0.0100
; #@! TA.AperFunction,Plated,PTH,ComponentDrill
T2C0.0256
; #@! TA.AperFunction,Plated,PTH,ComponentDrill
T3C0.0276
; #@! TA.AperFunction,Plated,PTH,ComponentDrill
T4C0.0315
; #@! TA.AperFunction,Plated,PTH,ComponentDrill
T5C0.0394
%
G90
G05
T1
X4.4776Y-5.3835
X4.502Y-5.1846
X4.5035Y-3.4287
X4.5909Y-3.4997
X4.598Y-3.363
X4.5984Y-3.6075
X4.5984Y-3.9909
X4.6017Y-3.4586
X4.6063Y-5.0724
X4.6142Y-3.4185
X4.6295Y-3.4572
X4.678Y-5.2579
X4.763Y-5.1327
X4.8736Y-5.2232
X4.9031Y-5.102
X5.2Y-5.4823
X5.2114Y-3.1984
X5.398Y-3.0299
X5.5909Y-2.9165
X5.6005Y-5.3206
X5.6496Y-5.3024
X5.7496Y-4.5598
X5.7835Y-4.5343
X5.8298Y-3.5486
X5.8354Y-4.0945
X5.8382Y-3.505
X5.8406Y-3.8236
X5.9287Y-3.5799
X5.9295Y-3.7563
X5.9303Y-3.7235
X5.9323Y-3.6957
X5.933Y-3.8072
X5.9382Y-3.911
X5.9419Y-3.8336
X5.9555Y-3.8579
X5.9681Y-3.7563
X5.9815Y-5.4689
X6.0346Y-3.5898
X6.0396Y-3.4288
X6.0402Y-3.9827
X6.0429Y-3.7748
X6.0436Y-3.4012
X6.0795Y-3.7524
X6.1326Y-3.7815
X6.1378Y-3.8472
X6.1543Y-4.1656
X6.1591Y-3.7539
X6.1685Y-3.6685
X6.1736Y-3.2638
X6.1748Y-3.7067
X6.202Y-5.2244
X6.2079Y-3.8823
X6.228Y-5.2244
X6.302Y-5.328
X6.3276Y-5.3134
X6.328Y-3.8752
X6.4843Y-4.0496
X6.6134Y-3.9205
X6.6803Y-4.1862
X6.6854Y-2.7008
X6.7969Y-3.6717
X6.8831Y-2.7004
X6.9492Y-3.5996
X7.0004Y-3.7004
X7.0441Y-2.6122
X7.1512Y-4.9236
X7.1949Y-2.8035
X7.537Y-2.7276
X7.6106Y-3.0622
T4
X5.0522Y-2.4193
X5.0522Y-2.498
X5.0522Y-2.5768
X5.0522Y-2.6555
X6.1305Y-2.4146
X6.1305Y-2.4933
X6.1305Y-2.572
X6.1305Y-2.6508
T5
X7.7661Y-3.0293
X7.7661Y-3.1293
X7.7661Y-3.2293
X7.7661Y-3.3293
X7.7661Y-3.4293
X7.7661Y-3.5293
X7.7661Y-3.6293
X7.7661Y-3.7293
X7.7661Y-3.8293
X7.7661Y-3.9293
X7.7661Y-4.0293
X7.7661Y-4.1293
X7.7661Y-4.2293
X7.7661Y-4.3293
X7.7661Y-4.4293
X7.7661Y-4.5293
X7.7661Y-4.6293
X7.7661Y-4.7293
X7.7661Y-4.8293
X7.7661Y-4.9293
X7.8661Y-3.0293
X7.8661Y-3.1293
X7.8661Y-3.2293
X7.8661Y-3.3293
X7.8661Y-3.4293
X7.8661Y-3.5293
X7.8661Y-3.6293
X7.8661Y-3.7293
X7.8661Y-3.8293
X7.8661Y-3.9293
X7.8661Y-4.0293
X7.8661Y-4.1293
X7.8661Y-4.2293
X7.8661Y-4.3293
X7.8661Y-4.4293
X7.8661Y-4.5293
X7.8661Y-4.6293
X7.8661Y-4.7293
X7.8661Y-4.8293
X7.8661Y-4.9293
T2
G00X4.4028Y-5.1014
M15
G01X4.4185Y-5.1014
M16
G05
G00X4.4028Y-5.2923
M15
G01X4.4185Y-5.2923
M16
G05
T3
G00X4.2815Y-5.0896
M15
G01X4.3012Y-5.0896
M16
G05
G00X4.2815Y-5.3041
M15
G01X4.3012Y-5.3041
M16
G05
T0
M30
