%TF.GenerationSoftware,KiCad,Pcbnew,(6.0.0)*%
%TF.CreationDate,2022-04-24T15:03:07-06:00*%
%TF.ProjectId,CDH,4344482e-6b69-4636-9164-5f7063625858,v01*%
%TF.SameCoordinates,Original*%
%TF.FileFunction,Paste,Top*%
%TF.FilePolarity,Positive*%
%FSLAX46Y46*%
G04 Gerber Fmt 4.6, Leading zero omitted, Abs format (unit mm)*
G04 Created by KiCad (PCBNEW (6.0.0)) date 2022-04-24 15:03:07*
%MOMM*%
%LPD*%
G01*
G04 APERTURE LIST*
G04 Aperture macros list*
%AMRoundRect*
0 Rectangle with rounded corners*
0 $1 Rounding radius*
0 $2 $3 $4 $5 $6 $7 $8 $9 X,Y pos of 4 corners*
0 Add a 4 corners polygon primitive as box body*
4,1,4,$2,$3,$4,$5,$6,$7,$8,$9,$2,$3,0*
0 Add four circle primitives for the rounded corners*
1,1,$1+$1,$2,$3*
1,1,$1+$1,$4,$5*
1,1,$1+$1,$6,$7*
1,1,$1+$1,$8,$9*
0 Add four rect primitives between the rounded corners*
20,1,$1+$1,$2,$3,$4,$5,0*
20,1,$1+$1,$4,$5,$6,$7,0*
20,1,$1+$1,$6,$7,$8,$9,0*
20,1,$1+$1,$8,$9,$2,$3,0*%
G04 Aperture macros list end*
%ADD10RoundRect,0.230000X-0.230000X-0.375000X0.230000X-0.375000X0.230000X0.375000X-0.230000X0.375000X0*%
%ADD11RoundRect,0.150000X-0.825000X-0.150000X0.825000X-0.150000X0.825000X0.150000X-0.825000X0.150000X0*%
%ADD12RoundRect,0.237500X-0.250000X-0.237500X0.250000X-0.237500X0.250000X0.237500X-0.250000X0.237500X0*%
%ADD13R,0.300000X1.300000*%
%ADD14R,1.800000X2.200000*%
%ADD15RoundRect,0.237500X-0.237500X0.250000X-0.237500X-0.250000X0.237500X-0.250000X0.237500X0.250000X0*%
%ADD16RoundRect,0.237500X0.250000X0.237500X-0.250000X0.237500X-0.250000X-0.237500X0.250000X-0.237500X0*%
%ADD17RoundRect,0.225000X-0.225000X-0.250000X0.225000X-0.250000X0.225000X0.250000X-0.225000X0.250000X0*%
%ADD18RoundRect,0.218750X-0.256250X0.218750X-0.256250X-0.218750X0.256250X-0.218750X0.256250X0.218750X0*%
%ADD19R,0.650000X0.400000*%
%ADD20RoundRect,0.225000X0.225000X0.250000X-0.225000X0.250000X-0.225000X-0.250000X0.225000X-0.250000X0*%
%ADD21RoundRect,0.225000X0.250000X-0.225000X0.250000X0.225000X-0.250000X0.225000X-0.250000X-0.225000X0*%
%ADD22RoundRect,0.150000X0.875000X0.150000X-0.875000X0.150000X-0.875000X-0.150000X0.875000X-0.150000X0*%
%ADD23R,1.750000X0.400000*%
%ADD24R,2.000000X1.300000*%
%ADD25R,1.400000X2.000000*%
%ADD26R,2.500000X1.425000*%
%ADD27R,0.700000X1.825000*%
%ADD28R,0.300000X0.300000*%
%ADD29RoundRect,0.200000X-0.200000X-0.275000X0.200000X-0.275000X0.200000X0.275000X-0.200000X0.275000X0*%
%ADD30R,0.700000X0.200000*%
%ADD31RoundRect,0.200000X0.200000X0.275000X-0.200000X0.275000X-0.200000X-0.275000X0.200000X-0.275000X0*%
G04 APERTURE END LIST*
D10*
%TO.C,U1*%
X182650000Y-93970000D03*
X181510000Y-92470000D03*
X182650000Y-92470000D03*
X181510000Y-93970000D03*
D11*
X179605000Y-91315000D03*
X179605000Y-92585000D03*
X179605000Y-93855000D03*
X179605000Y-95125000D03*
X184555000Y-95125000D03*
X184555000Y-93855000D03*
X184555000Y-92585000D03*
X184555000Y-91315000D03*
%TD*%
D12*
%TO.C,R7*%
X125175000Y-134000000D03*
X127000000Y-134000000D03*
%TD*%
D13*
%TO.C,Camera1*%
X132060000Y-137150000D03*
X132560000Y-137150000D03*
X133060000Y-137150000D03*
X133560000Y-137150000D03*
X134060000Y-137150000D03*
X134560000Y-137150000D03*
X135060000Y-137150000D03*
X135560000Y-137150000D03*
X136060000Y-137150000D03*
X136560000Y-137150000D03*
X137060000Y-137150000D03*
X137560000Y-137150000D03*
X138060000Y-137150000D03*
X138560000Y-137150000D03*
X139060000Y-137150000D03*
X139560000Y-137150000D03*
X140060000Y-137150000D03*
X140560000Y-137150000D03*
X141060000Y-137150000D03*
X141560000Y-137150000D03*
X142060000Y-137150000D03*
X142560000Y-137150000D03*
D14*
X130160000Y-140400000D03*
X144460000Y-140400000D03*
%TD*%
D15*
%TO.C,R2*%
X179060000Y-61927500D03*
X179060000Y-63752500D03*
%TD*%
%TO.C,R3*%
X168610000Y-61467500D03*
X168610000Y-63292500D03*
%TD*%
D16*
%TO.C,R8*%
X127000000Y-131000000D03*
X125175000Y-131000000D03*
%TD*%
D17*
%TO.C,C4*%
X189610000Y-93150000D03*
X191160000Y-93150000D03*
%TD*%
D18*
%TO.C,D1*%
X175840000Y-61912500D03*
X175840000Y-63487500D03*
%TD*%
D19*
%TO.C,U4*%
X171720000Y-66610000D03*
X171720000Y-67260000D03*
X171720000Y-67910000D03*
X173620000Y-67910000D03*
X173620000Y-66610000D03*
%TD*%
D18*
%TO.C,D2*%
X165962500Y-61542500D03*
X165962500Y-63117500D03*
%TD*%
D20*
%TO.C,C2*%
X157930000Y-106890000D03*
X156380000Y-106890000D03*
%TD*%
D21*
%TO.C,C3*%
X176120000Y-93985000D03*
X176120000Y-92435000D03*
%TD*%
D22*
%TO.C,U3*%
X172130000Y-104730000D03*
X172130000Y-103460000D03*
X172130000Y-102190000D03*
X172130000Y-100920000D03*
X172130000Y-99650000D03*
X172130000Y-98380000D03*
X172130000Y-97110000D03*
X172130000Y-95840000D03*
X172130000Y-94570000D03*
X162830000Y-94570000D03*
X162830000Y-95840000D03*
X162830000Y-97110000D03*
X162830000Y-98380000D03*
X162830000Y-99650000D03*
X162830000Y-100920000D03*
X162830000Y-102190000D03*
X162830000Y-103460000D03*
X162830000Y-104730000D03*
%TD*%
D23*
%TO.C,J4*%
X111820000Y-130700000D03*
X111820000Y-131350000D03*
X111820000Y-132000000D03*
X111820000Y-132650000D03*
X111820000Y-133300000D03*
D24*
X109930000Y-129275000D03*
D25*
X112060000Y-129150000D03*
D26*
X108750000Y-132962500D03*
D27*
X110700000Y-134987500D03*
D24*
X109930000Y-134725000D03*
D26*
X108750000Y-131037500D03*
D25*
X112060000Y-134900000D03*
D27*
X110700000Y-129012500D03*
%TD*%
D13*
%TO.C,Display1*%
X151000000Y-137130000D03*
X151500000Y-137130000D03*
X152000000Y-137130000D03*
X152500000Y-137130000D03*
X153000000Y-137130000D03*
X153500000Y-137130000D03*
X154000000Y-137130000D03*
X154500000Y-137130000D03*
X155000000Y-137130000D03*
X155500000Y-137130000D03*
X156000000Y-137130000D03*
X156500000Y-137130000D03*
X157000000Y-137130000D03*
X157500000Y-137130000D03*
X158000000Y-137130000D03*
X158500000Y-137130000D03*
X159000000Y-137130000D03*
X159500000Y-137130000D03*
X160000000Y-137130000D03*
X160500000Y-137130000D03*
X161000000Y-137130000D03*
X161500000Y-137130000D03*
D14*
X163400000Y-140380000D03*
X149100000Y-140380000D03*
%TD*%
D20*
%TO.C,C1*%
X157870000Y-104365000D03*
X156320000Y-104365000D03*
%TD*%
D28*
%TO.C,U2*%
X116525000Y-132040000D03*
X116525000Y-131340000D03*
X115675000Y-131690000D03*
%TD*%
D29*
%TO.C,R10*%
X187655000Y-91020000D03*
X189305000Y-91020000D03*
%TD*%
D30*
%TO.C,Module1*%
X152430000Y-105180000D03*
X149350000Y-105180000D03*
X152430000Y-104780000D03*
X149350000Y-104780000D03*
X152430000Y-104380000D03*
X149350000Y-104380000D03*
X152430000Y-103980000D03*
X149350000Y-103980000D03*
X152430000Y-103580000D03*
X149350000Y-103580000D03*
X152430000Y-103180000D03*
X149350000Y-103180000D03*
X152430000Y-102780000D03*
X149350000Y-102780000D03*
X152430000Y-102380000D03*
X149350000Y-102380000D03*
X152430000Y-101980000D03*
X149350000Y-101980000D03*
X152430000Y-101580000D03*
X149350000Y-101580000D03*
X152430000Y-101180000D03*
X149350000Y-101180000D03*
X152430000Y-100780000D03*
X149350000Y-100780000D03*
X152430000Y-100380000D03*
X149350000Y-100380000D03*
X152430000Y-99980000D03*
X149350000Y-99980000D03*
X152430000Y-99580000D03*
X149350000Y-99580000D03*
X152430000Y-99180000D03*
X149350000Y-99180000D03*
X152430000Y-98780000D03*
X149350000Y-98780000D03*
X152430000Y-98380000D03*
X149350000Y-98380000D03*
X152430000Y-97980000D03*
X149350000Y-97980000D03*
X152430000Y-97580000D03*
X149350000Y-97580000D03*
X152430000Y-97180000D03*
X149350000Y-97180000D03*
X152430000Y-96780000D03*
X149350000Y-96780000D03*
X152430000Y-96380000D03*
X149350000Y-96380000D03*
X152430000Y-95980000D03*
X149350000Y-95980000D03*
X152430000Y-95580000D03*
X149350000Y-95580000D03*
X152430000Y-95180000D03*
X149350000Y-95180000D03*
X152430000Y-94780000D03*
X149350000Y-94780000D03*
X152430000Y-94380000D03*
X149350000Y-94380000D03*
X152430000Y-93980000D03*
X149350000Y-93980000D03*
X152430000Y-93580000D03*
X149350000Y-93580000D03*
X152430000Y-93180000D03*
X149350000Y-93180000D03*
X152430000Y-92780000D03*
X149350000Y-92780000D03*
X152430000Y-92380000D03*
X149350000Y-92380000D03*
X152430000Y-91980000D03*
X149350000Y-91980000D03*
X152430000Y-91580000D03*
X149350000Y-91580000D03*
X152430000Y-91180000D03*
X149350000Y-91180000D03*
X152430000Y-90780000D03*
X149350000Y-90780000D03*
X152430000Y-90380000D03*
X149350000Y-90380000D03*
X152430000Y-89980000D03*
X149350000Y-89980000D03*
X152430000Y-89580000D03*
X149350000Y-89580000D03*
X152430000Y-89180000D03*
X149350000Y-89180000D03*
X152430000Y-88780000D03*
X149350000Y-88780000D03*
X152430000Y-88380000D03*
X149350000Y-88380000D03*
X152430000Y-87980000D03*
X149350000Y-87980000D03*
X152430000Y-87580000D03*
X149350000Y-87580000D03*
X152430000Y-87180000D03*
X149350000Y-87180000D03*
X152430000Y-86780000D03*
X149350000Y-86780000D03*
X152430000Y-86380000D03*
X149350000Y-86380000D03*
X152430000Y-85980000D03*
X149350000Y-85980000D03*
X152430000Y-85580000D03*
X149350000Y-85580000D03*
X118510000Y-105180000D03*
X115430000Y-105180000D03*
X118510000Y-104780000D03*
X115430000Y-104780000D03*
X118510000Y-104380000D03*
X115430000Y-104380000D03*
X118510000Y-103980000D03*
X115430000Y-103980000D03*
X118510000Y-103580000D03*
X115430000Y-103580000D03*
X118510000Y-103180000D03*
X115430000Y-103180000D03*
X118510000Y-102780000D03*
X115430000Y-102780000D03*
X118510000Y-102380000D03*
X115430000Y-102380000D03*
X118510000Y-101980000D03*
X115430000Y-101980000D03*
X118510000Y-101580000D03*
X115430000Y-101580000D03*
X118510000Y-101180000D03*
X115430000Y-101180000D03*
X118510000Y-100780000D03*
X115430000Y-100780000D03*
X118510000Y-100380000D03*
X115430000Y-100380000D03*
X118510000Y-99980000D03*
X115430000Y-99980000D03*
X118510000Y-99580000D03*
X115430000Y-99580000D03*
X118510000Y-99180000D03*
X115430000Y-99180000D03*
X118510000Y-98780000D03*
X115430000Y-98780000D03*
X118510000Y-98380000D03*
X115430000Y-98380000D03*
X118510000Y-97980000D03*
X115430000Y-97980000D03*
X118510000Y-97580000D03*
X115430000Y-97580000D03*
X118510000Y-97180000D03*
X115430000Y-97180000D03*
X118510000Y-96780000D03*
X115430000Y-96780000D03*
X118510000Y-96380000D03*
X115430000Y-96380000D03*
X118510000Y-95980000D03*
X115430000Y-95980000D03*
X118510000Y-95580000D03*
X115430000Y-95580000D03*
X118510000Y-95180000D03*
X115430000Y-95180000D03*
X118510000Y-94780000D03*
X115430000Y-94780000D03*
X118510000Y-94380000D03*
X115430000Y-94380000D03*
X118510000Y-93980000D03*
X115430000Y-93980000D03*
X118510000Y-93580000D03*
X115430000Y-93580000D03*
X118510000Y-93180000D03*
X115430000Y-93180000D03*
X118510000Y-92780000D03*
X115430000Y-92780000D03*
X118510000Y-92380000D03*
X115430000Y-92380000D03*
X118510000Y-91980000D03*
X115430000Y-91980000D03*
X118510000Y-91580000D03*
X115430000Y-91580000D03*
X118510000Y-91180000D03*
X115430000Y-91180000D03*
X118510000Y-90780000D03*
X115430000Y-90780000D03*
X118510000Y-90380000D03*
X115430000Y-90380000D03*
X118510000Y-89980000D03*
X115430000Y-89980000D03*
X118510000Y-89580000D03*
X115430000Y-89580000D03*
X118510000Y-89180000D03*
X115430000Y-89180000D03*
X118510000Y-88780000D03*
X115430000Y-88780000D03*
X118510000Y-88380000D03*
X115430000Y-88380000D03*
X118510000Y-87980000D03*
X115430000Y-87980000D03*
X118510000Y-87580000D03*
X115430000Y-87580000D03*
X118510000Y-87180000D03*
X115430000Y-87180000D03*
X118510000Y-86780000D03*
X115430000Y-86780000D03*
X118510000Y-86380000D03*
X115430000Y-86380000D03*
X118510000Y-85980000D03*
X115430000Y-85980000D03*
X118510000Y-85580000D03*
X115430000Y-85580000D03*
%TD*%
D29*
%TO.C,R1*%
X156420000Y-100530000D03*
X158070000Y-100530000D03*
%TD*%
D31*
%TO.C,R9*%
X189305000Y-95270000D03*
X187655000Y-95270000D03*
%TD*%
M02*
