%TF.GenerationSoftware,KiCad,Pcbnew,(6.0.0)*%
%TF.CreationDate,2022-03-19T17:32:23-06:00*%
%TF.ProjectId,CDH,4344482e-6b69-4636-9164-5f7063625858,v01*%
%TF.SameCoordinates,Original*%
%TF.FileFunction,Soldermask,Bot*%
%TF.FilePolarity,Negative*%
%FSLAX46Y46*%
G04 Gerber Fmt 4.6, Leading zero omitted, Abs format (unit mm)*
G04 Created by KiCad (PCBNEW (6.0.0)) date 2022-03-19 17:32:23*
%MOMM*%
%LPD*%
G01*
G04 APERTURE LIST*
G04 Aperture macros list*
%AMFreePoly0*
4,1,22,0.500000,-0.750000,0.000000,-0.750000,0.000000,-0.745033,-0.079941,-0.743568,-0.215256,-0.701293,-0.333266,-0.622738,-0.424486,-0.514219,-0.481581,-0.384460,-0.499164,-0.250000,-0.500000,-0.250000,-0.500000,0.250000,-0.499164,0.250000,-0.499963,0.256109,-0.478152,0.396186,-0.417904,0.524511,-0.324060,0.630769,-0.204165,0.706417,-0.067858,0.745374,0.000000,0.744959,0.000000,0.750000,
0.500000,0.750000,0.500000,-0.750000,0.500000,-0.750000,$1*%
%AMFreePoly1*
4,1,20,0.000000,0.744959,0.073905,0.744508,0.209726,0.703889,0.328688,0.626782,0.421226,0.519385,0.479903,0.390333,0.500000,0.250000,0.500000,-0.250000,0.499851,-0.262216,0.476331,-0.402017,0.414519,-0.529596,0.319384,-0.634700,0.198574,-0.708877,0.061801,-0.746166,0.000000,-0.745033,0.000000,-0.750000,-0.500000,-0.750000,-0.500000,0.750000,0.000000,0.750000,0.000000,0.744959,
0.000000,0.744959,$1*%
G04 Aperture macros list end*
%ADD10R,1.308000X1.308000*%
%ADD11C,1.308000*%
%ADD12C,1.100000*%
%ADD13C,3.000000*%
%ADD14O,1.700000X1.300000*%
%ADD15O,1.400000X1.000000*%
%ADD16C,6.100000*%
%ADD17R,1.700000X1.700000*%
%ADD18O,1.700000X1.700000*%
%ADD19FreePoly0,180.000000*%
%ADD20FreePoly1,180.000000*%
G04 APERTURE END LIST*
D10*
%TO.C,P2*%
X149210000Y-64565000D03*
D11*
X147210000Y-64565000D03*
X145210000Y-64565000D03*
X143210000Y-64565000D03*
D12*
X141710000Y-62465000D03*
X150710000Y-62465000D03*
%TD*%
D10*
%TO.C,P1*%
X134570000Y-64535000D03*
D11*
X132570000Y-64535000D03*
X130570000Y-64535000D03*
X128570000Y-64535000D03*
D12*
X127070000Y-62435000D03*
X136070000Y-62435000D03*
%TD*%
D13*
%TO.C,H4*%
X110640000Y-141850000D03*
%TD*%
%TO.C,H2*%
X190340000Y-60150000D03*
%TD*%
%TO.C,H1*%
X110640000Y-60150000D03*
%TD*%
%TO.C,H3*%
X190340000Y-141850000D03*
%TD*%
D14*
%TO.C,J4*%
X109000000Y-134725000D03*
D15*
X112030000Y-134425000D03*
X112030000Y-129575000D03*
D14*
X109000000Y-129275000D03*
%TD*%
D16*
%TO.C,Module1*%
X150430000Y-73880000D03*
X117430000Y-121880000D03*
X117430000Y-73880000D03*
X150430000Y-121880000D03*
%TD*%
D17*
%TO.C,J1*%
X197260000Y-76945000D03*
D18*
X199800000Y-76945000D03*
X197260000Y-79485000D03*
X199800000Y-79485000D03*
X197260000Y-82025000D03*
X199800000Y-82025000D03*
X197260000Y-84565000D03*
X199800000Y-84565000D03*
X197260000Y-87105000D03*
X199800000Y-87105000D03*
X197260000Y-89645000D03*
X199800000Y-89645000D03*
X197260000Y-92185000D03*
X199800000Y-92185000D03*
X197260000Y-94725000D03*
X199800000Y-94725000D03*
X197260000Y-97265000D03*
X199800000Y-97265000D03*
X197260000Y-99805000D03*
X199800000Y-99805000D03*
X197260000Y-102345000D03*
X199800000Y-102345000D03*
X197260000Y-104885000D03*
X199800000Y-104885000D03*
X197260000Y-107425000D03*
X199800000Y-107425000D03*
X197260000Y-109965000D03*
X199800000Y-109965000D03*
X197260000Y-112505000D03*
X199800000Y-112505000D03*
X197260000Y-115045000D03*
X199800000Y-115045000D03*
X197260000Y-117585000D03*
X199800000Y-117585000D03*
X197260000Y-120125000D03*
X199800000Y-120125000D03*
X197260000Y-122665000D03*
X199800000Y-122665000D03*
X197260000Y-125205000D03*
X199800000Y-125205000D03*
%TD*%
D19*
%TO.C,JP1*%
X152740000Y-134060000D03*
D20*
X151440000Y-134060000D03*
%TD*%
M02*
