M48
; DRILL file {KiCad (6.0.0)} date Sat Mar 19 17:32:31 2022
; FORMAT={-:-/ absolute / inch / decimal}
; #@! TF.CreationDate,2022-03-19T17:32:31-06:00
; #@! TF.GenerationSoftware,Kicad,Pcbnew,(6.0.0)
; #@! TF.FileFunction,Plated,1,2,PTH
FMAT,2
INCH
; #@! TA.AperFunction,Plated,PTH,ViaDrill
T1C0.0100
; #@! TA.AperFunction,Plated,PTH,ComponentDrill
T2C0.0256
; #@! TA.AperFunction,Plated,PTH,ComponentDrill
T3C0.0276
; #@! TA.AperFunction,Plated,PTH,ComponentDrill
T4C0.0315
; #@! TA.AperFunction,Plated,PTH,ComponentDrill
T5C0.0394
%
G90
G05
T1
X4.4776Y-5.3835
X4.502Y-5.1846
X4.5764Y-3.4222
X4.5984Y-3.5673
X4.5984Y-3.9909
X4.6063Y-5.0724
X4.678Y-5.2579
X4.763Y-5.1327
X4.8736Y-5.2232
X4.9031Y-5.102
X5.0299Y-2.5874
X5.25Y-3.189
X5.6386Y-2.6157
X5.6689Y-2.8047
X5.6921Y-2.8283
X5.7945Y-3.3024
X5.8354Y-4.0945
X5.8406Y-3.8236
X5.9287Y-3.5799
X5.9295Y-3.7563
X5.9303Y-3.7235
X5.9323Y-3.6957
X5.933Y-3.8072
X5.9382Y-3.911
X5.9419Y-3.8336
X5.9555Y-3.8579
X5.9681Y-3.7563
X6.0346Y-3.5898
X6.0358Y-5.0984
X6.0396Y-3.4288
X6.0402Y-3.9827
X6.0429Y-3.7748
X6.0436Y-3.4012
X6.0902Y-5.3835
X6.1108Y-3.9209
X6.1326Y-3.7815
X6.1378Y-3.8472
X6.1543Y-4.1656
X6.1685Y-3.6685
X6.1748Y-3.7067
X6.1909Y-3.2
X6.2079Y-3.8823
X6.2677Y-3.3794
X6.3205Y-3.4224
X6.328Y-2.9957
X6.328Y-3.8752
X6.3673Y-3.053
X6.3874Y-3.4449
X6.502Y-3.1429
X6.6803Y-4.1862
X6.8471Y-3.7248
X7.0913Y-3.6457
X7.0972Y-3.6937
X7.1949Y-2.8035
X7.5894Y-3.0925
X7.6752Y-3.4311
T4
X5.0618Y-2.5407
X5.1406Y-2.5407
X5.2193Y-2.5407
X5.298Y-2.5407
X5.6382Y-2.5419
X5.7169Y-2.5419
X5.7957Y-2.5419
X5.8744Y-2.5419
T5
X7.7661Y-3.0293
X7.7661Y-3.1293
X7.7661Y-3.2293
X7.7661Y-3.3293
X7.7661Y-3.4293
X7.7661Y-3.5293
X7.7661Y-3.6293
X7.7661Y-3.7293
X7.7661Y-3.8293
X7.7661Y-3.9293
X7.7661Y-4.0293
X7.7661Y-4.1293
X7.7661Y-4.2293
X7.7661Y-4.3293
X7.7661Y-4.4293
X7.7661Y-4.5293
X7.7661Y-4.6293
X7.7661Y-4.7293
X7.7661Y-4.8293
X7.7661Y-4.9293
X7.8661Y-3.0293
X7.8661Y-3.1293
X7.8661Y-3.2293
X7.8661Y-3.3293
X7.8661Y-3.4293
X7.8661Y-3.5293
X7.8661Y-3.6293
X7.8661Y-3.7293
X7.8661Y-3.8293
X7.8661Y-3.9293
X7.8661Y-4.0293
X7.8661Y-4.1293
X7.8661Y-4.2293
X7.8661Y-4.3293
X7.8661Y-4.4293
X7.8661Y-4.5293
X7.8661Y-4.6293
X7.8661Y-4.7293
X7.8661Y-4.8293
X7.8661Y-4.9293
T2
G00X4.4028Y-5.1014
M15
G01X4.4185Y-5.1014
M16
G05
G00X4.4028Y-5.2923
M15
G01X4.4185Y-5.2923
M16
G05
T3
G00X4.2815Y-5.0896
M15
G01X4.3012Y-5.0896
M16
G05
G00X4.2815Y-5.3041
M15
G01X4.3012Y-5.3041
M16
G05
T0
M30
