%TF.GenerationSoftware,KiCad,Pcbnew,(6.0.0)*%
%TF.CreationDate,2022-03-19T17:32:23-06:00*%
%TF.ProjectId,CDH,4344482e-6b69-4636-9164-5f7063625858,v01*%
%TF.SameCoordinates,Original*%
%TF.FileFunction,Copper,L1,Top*%
%TF.FilePolarity,Positive*%
%FSLAX46Y46*%
G04 Gerber Fmt 4.6, Leading zero omitted, Abs format (unit mm)*
G04 Created by KiCad (PCBNEW (6.0.0)) date 2022-03-19 17:32:23*
%MOMM*%
%LPD*%
G01*
G04 APERTURE LIST*
G04 Aperture macros list*
%AMRoundRect*
0 Rectangle with rounded corners*
0 $1 Rounding radius*
0 $2 $3 $4 $5 $6 $7 $8 $9 X,Y pos of 4 corners*
0 Add a 4 corners polygon primitive as box body*
4,1,4,$2,$3,$4,$5,$6,$7,$8,$9,$2,$3,0*
0 Add four circle primitives for the rounded corners*
1,1,$1+$1,$2,$3*
1,1,$1+$1,$4,$5*
1,1,$1+$1,$6,$7*
1,1,$1+$1,$8,$9*
0 Add four rect primitives between the rounded corners*
20,1,$1+$1,$2,$3,$4,$5,0*
20,1,$1+$1,$4,$5,$6,$7,0*
20,1,$1+$1,$6,$7,$8,$9,0*
20,1,$1+$1,$8,$9,$2,$3,0*%
%AMFreePoly0*
4,1,22,0.500000,-0.750000,0.000000,-0.750000,0.000000,-0.745033,-0.079941,-0.743568,-0.215256,-0.701293,-0.333266,-0.622738,-0.424486,-0.514219,-0.481581,-0.384460,-0.499164,-0.250000,-0.500000,-0.250000,-0.500000,0.250000,-0.499164,0.250000,-0.499963,0.256109,-0.478152,0.396186,-0.417904,0.524511,-0.324060,0.630769,-0.204165,0.706417,-0.067858,0.745374,0.000000,0.744959,0.000000,0.750000,
0.500000,0.750000,0.500000,-0.750000,0.500000,-0.750000,$1*%
%AMFreePoly1*
4,1,20,0.000000,0.744959,0.073905,0.744508,0.209726,0.703889,0.328688,0.626782,0.421226,0.519385,0.479903,0.390333,0.500000,0.250000,0.500000,-0.250000,0.499851,-0.262216,0.476331,-0.402017,0.414519,-0.529596,0.319384,-0.634700,0.198574,-0.708877,0.061801,-0.746166,0.000000,-0.745033,0.000000,-0.750000,-0.500000,-0.750000,-0.500000,0.750000,0.000000,0.750000,0.000000,0.744959,
0.000000,0.744959,$1*%
G04 Aperture macros list end*
%TA.AperFunction,ComponentPad*%
%ADD10R,1.308000X1.308000*%
%TD*%
%TA.AperFunction,ComponentPad*%
%ADD11C,1.308000*%
%TD*%
%TA.AperFunction,SMDPad,CuDef*%
%ADD12RoundRect,0.237500X-0.250000X-0.237500X0.250000X-0.237500X0.250000X0.237500X-0.250000X0.237500X0*%
%TD*%
%TA.AperFunction,SMDPad,CuDef*%
%ADD13RoundRect,0.237500X0.237500X-0.250000X0.237500X0.250000X-0.237500X0.250000X-0.237500X-0.250000X0*%
%TD*%
%TA.AperFunction,SMDPad,CuDef*%
%ADD14RoundRect,0.237500X0.250000X0.237500X-0.250000X0.237500X-0.250000X-0.237500X0.250000X-0.237500X0*%
%TD*%
%TA.AperFunction,SMDPad,CuDef*%
%ADD15R,0.650000X0.400000*%
%TD*%
%TA.AperFunction,SMDPad,CuDef*%
%ADD16RoundRect,0.218750X0.256250X-0.218750X0.256250X0.218750X-0.256250X0.218750X-0.256250X-0.218750X0*%
%TD*%
%TA.AperFunction,SMDPad,CuDef*%
%ADD17R,2.290000X3.000000*%
%TD*%
%TA.AperFunction,SMDPad,CuDef*%
%ADD18RoundRect,0.150000X-0.825000X-0.150000X0.825000X-0.150000X0.825000X0.150000X-0.825000X0.150000X0*%
%TD*%
%TA.AperFunction,SMDPad,CuDef*%
%ADD19RoundRect,0.218750X-0.218750X-0.256250X0.218750X-0.256250X0.218750X0.256250X-0.218750X0.256250X0*%
%TD*%
%TA.AperFunction,SMDPad,CuDef*%
%ADD20RoundRect,0.225000X0.225000X0.250000X-0.225000X0.250000X-0.225000X-0.250000X0.225000X-0.250000X0*%
%TD*%
%TA.AperFunction,SMDPad,CuDef*%
%ADD21RoundRect,0.225000X0.250000X-0.225000X0.250000X0.225000X-0.250000X0.225000X-0.250000X-0.225000X0*%
%TD*%
%TA.AperFunction,SMDPad,CuDef*%
%ADD22RoundRect,0.150000X0.875000X0.150000X-0.875000X0.150000X-0.875000X-0.150000X0.875000X-0.150000X0*%
%TD*%
%TA.AperFunction,SMDPad,CuDef*%
%ADD23R,1.750000X0.400000*%
%TD*%
%TA.AperFunction,SMDPad,CuDef*%
%ADD24R,2.000000X1.300000*%
%TD*%
%TA.AperFunction,ComponentPad*%
%ADD25O,1.700000X1.300000*%
%TD*%
%TA.AperFunction,SMDPad,CuDef*%
%ADD26R,1.400000X2.000000*%
%TD*%
%TA.AperFunction,SMDPad,CuDef*%
%ADD27R,2.500000X1.425000*%
%TD*%
%TA.AperFunction,ComponentPad*%
%ADD28O,1.400000X1.000000*%
%TD*%
%TA.AperFunction,SMDPad,CuDef*%
%ADD29R,0.700000X1.825000*%
%TD*%
%TA.AperFunction,SMDPad,CuDef*%
%ADD30FreePoly0,0.000000*%
%TD*%
%TA.AperFunction,SMDPad,CuDef*%
%ADD31FreePoly1,0.000000*%
%TD*%
%TA.AperFunction,SMDPad,CuDef*%
%ADD32R,0.300000X0.300000*%
%TD*%
%TA.AperFunction,SMDPad,CuDef*%
%ADD33R,0.700000X0.200000*%
%TD*%
%TA.AperFunction,SMDPad,CuDef*%
%ADD34RoundRect,0.200000X-0.200000X-0.275000X0.200000X-0.275000X0.200000X0.275000X-0.200000X0.275000X0*%
%TD*%
%TA.AperFunction,ComponentPad*%
%ADD35R,1.700000X1.700000*%
%TD*%
%TA.AperFunction,ComponentPad*%
%ADD36O,1.700000X1.700000*%
%TD*%
%TA.AperFunction,ViaPad*%
%ADD37C,0.508000*%
%TD*%
%TA.AperFunction,Conductor*%
%ADD38C,0.200000*%
%TD*%
%TA.AperFunction,Conductor*%
%ADD39C,0.300000*%
%TD*%
%TA.AperFunction,Conductor*%
%ADD40C,1.400000*%
%TD*%
%TA.AperFunction,Conductor*%
%ADD41C,0.700000*%
%TD*%
G04 APERTURE END LIST*
D10*
%TO.P,P2,1,1*%
%TO.N,+5V*%
X149210000Y-64565000D03*
D11*
%TO.P,P2,2,2*%
%TO.N,/CM4 GPIO/GPIO12*%
X147210000Y-64565000D03*
%TO.P,P2,3,3*%
%TO.N,/CM4 GPIO/GPIO13*%
X145210000Y-64565000D03*
%TO.P,P2,4,4*%
%TO.N,GND*%
X143210000Y-64565000D03*
%TD*%
D10*
%TO.P,P1,1,1*%
%TO.N,+5V*%
X134570000Y-64535000D03*
D11*
%TO.P,P1,2,2*%
%TO.N,/CM4 GPIO/GPIO14*%
X132570000Y-64535000D03*
%TO.P,P1,3,3*%
%TO.N,/CM4 GPIO/GPIO15*%
X130570000Y-64535000D03*
%TO.P,P1,4,4*%
%TO.N,GND*%
X128570000Y-64535000D03*
%TD*%
D12*
%TO.P,R7,1*%
%TO.N,Net-(J4-Pad1)*%
X125175000Y-134000000D03*
%TO.P,R7,2*%
%TO.N,/CM4 High Speed/USB_OTG_ID*%
X127000000Y-134000000D03*
%TD*%
D13*
%TO.P,R2,1*%
%TO.N,Net-(D1-Pad1)*%
X172480000Y-81522500D03*
%TO.P,R2,2*%
%TO.N,/CM4 GPIO/nLED_Activity*%
X172480000Y-79697500D03*
%TD*%
D12*
%TO.P,R3,1*%
%TO.N,Net-(D2-Pad1)*%
X157437500Y-75247500D03*
%TO.P,R3,2*%
%TO.N,Net-(R3-Pad2)*%
X159262500Y-75247500D03*
%TD*%
D14*
%TO.P,R8,1*%
%TO.N,/CM4 High Speed/USB_OTG_ID*%
X127000000Y-131000000D03*
%TO.P,R8,2*%
%TO.N,GND*%
X125175000Y-131000000D03*
%TD*%
D15*
%TO.P,U1,1*%
%TO.N,N/C*%
X163250000Y-86210000D03*
%TO.P,U1,2*%
%TO.N,/CM4 GPIO/nPWR_LED*%
X163250000Y-86860000D03*
%TO.P,U1,3,GND*%
%TO.N,GND*%
X163250000Y-87510000D03*
%TO.P,U1,4*%
%TO.N,Net-(R6-Pad2)*%
X165150000Y-87510000D03*
%TO.P,U1,5,VCC*%
%TO.N,+3.3V*%
X165150000Y-86210000D03*
%TD*%
D16*
%TO.P,D1,1,K*%
%TO.N,Net-(D1-Pad1)*%
X176520000Y-81305000D03*
%TO.P,D1,2,A*%
%TO.N,+3.3V*%
X176520000Y-79730000D03*
%TD*%
D17*
%TO.P,U1,9*%
%TO.N,N/C*%
X185190000Y-93250000D03*
D18*
%TO.P,U1,8,STBY*%
%TO.N,unconnected-(U1-Pad8)*%
X187665000Y-91345000D03*
%TO.P,U1,7,CANH*%
%TO.N,Net-(J1-Pad13)*%
X187665000Y-92615000D03*
%TO.P,U1,6,CANL*%
%TO.N,Net-(J1-Pad15)*%
X187665000Y-93885000D03*
%TO.P,U1,5,NSIL*%
%TO.N,unconnected-(U1-Pad5)*%
X187665000Y-95155000D03*
%TO.P,U1,4,RXD*%
%TO.N,Net-(U1-Pad4)*%
X182715000Y-95155000D03*
%TO.P,U1,3,VCC*%
%TO.N,+5V*%
X182715000Y-93885000D03*
%TO.P,U1,2,GND*%
%TO.N,GND*%
X182715000Y-92615000D03*
%TO.P,U1,1,TXD*%
%TO.N,Net-(U1-Pad1)*%
X182715000Y-91345000D03*
%TD*%
D15*
%TO.P,U4,5,VCC*%
%TO.N,+3.3V*%
X163600000Y-75267500D03*
%TO.P,U4,4*%
%TO.N,Net-(R3-Pad2)*%
X163600000Y-76567500D03*
%TO.P,U4,3,GND*%
%TO.N,GND*%
X161700000Y-76567500D03*
%TO.P,U4,2*%
%TO.N,/CM4 GPIO/nPWR_LED*%
X161700000Y-75917500D03*
%TO.P,U4,1*%
%TO.N,N/C*%
X161700000Y-75267500D03*
%TD*%
D19*
%TO.P,D2,1,K*%
%TO.N,Net-(D2-Pad1)*%
X157432500Y-77797500D03*
%TO.P,D2,2,A*%
%TO.N,+3.3V*%
X159007500Y-77797500D03*
%TD*%
D20*
%TO.P,C2,1*%
%TO.N,+5V*%
X157870000Y-106875000D03*
%TO.P,C2,2*%
%TO.N,GND*%
X156320000Y-106875000D03*
%TD*%
D21*
%TO.P,C3,1*%
%TO.N,+5V*%
X177560000Y-94065000D03*
%TO.P,C3,2*%
%TO.N,GND*%
X177560000Y-92515000D03*
%TD*%
D22*
%TO.P,U3,1,TXCAN*%
%TO.N,Net-(U1-Pad4)*%
X172130000Y-104730000D03*
%TO.P,U3,2,RXCAN*%
%TO.N,Net-(U1-Pad1)*%
X172130000Y-103460000D03*
%TO.P,U3,3,CLKOUT/SOF*%
%TO.N,unconnected-(U3-Pad3)*%
X172130000Y-102190000D03*
%TO.P,U3,4,~{TX0RTS}*%
%TO.N,unconnected-(U3-Pad4)*%
X172130000Y-100920000D03*
%TO.P,U3,5,~{TX1RTS}*%
%TO.N,unconnected-(U3-Pad5)*%
X172130000Y-99650000D03*
%TO.P,U3,6,~{TX2RTS}*%
%TO.N,unconnected-(U3-Pad6)*%
X172130000Y-98380000D03*
%TO.P,U3,7,OSC2*%
%TO.N,unconnected-(U3-Pad7)*%
X172130000Y-97110000D03*
%TO.P,U3,8,OSC1*%
%TO.N,unconnected-(U3-Pad8)*%
X172130000Y-95840000D03*
%TO.P,U3,9,VSS*%
%TO.N,GND*%
X172130000Y-94570000D03*
%TO.P,U3,10,~{RX1BF}*%
%TO.N,unconnected-(U3-Pad10)*%
X162830000Y-94570000D03*
%TO.P,U3,11,~{RX0BF}*%
%TO.N,unconnected-(U3-Pad11)*%
X162830000Y-95840000D03*
%TO.P,U3,12,~{INT}*%
%TO.N,unconnected-(U3-Pad12)*%
X162830000Y-97110000D03*
%TO.P,U3,13,SCK*%
%TO.N,/CM4 GPIO/GPIO11*%
X162830000Y-98380000D03*
%TO.P,U3,14,SI*%
%TO.N,/CM4 GPIO/GPIO8*%
X162830000Y-99650000D03*
%TO.P,U3,15,SO*%
%TO.N,/CM4 GPIO/GPIO9*%
X162830000Y-100920000D03*
%TO.P,U3,16,~{CS}*%
%TO.N,/CM4 GPIO/GPIO10*%
X162830000Y-102190000D03*
%TO.P,U3,17,~{RESET}*%
%TO.N,Net-(R1-Pad2)*%
X162830000Y-103460000D03*
%TO.P,U3,18,VDD*%
%TO.N,+5V*%
X162830000Y-104730000D03*
%TD*%
D23*
%TO.P,J4,1,VBUS*%
%TO.N,Net-(J4-Pad1)*%
X111820000Y-130700000D03*
%TO.P,J4,2,D-*%
%TO.N,/CM4 High Speed/USB2_N*%
X111820000Y-131350000D03*
%TO.P,J4,3,D+*%
%TO.N,/CM4 High Speed/USB2_P*%
X111820000Y-132000000D03*
%TO.P,J4,4,ID*%
%TO.N,unconnected-(J4-Pad4)*%
X111820000Y-132650000D03*
%TO.P,J4,5,GND*%
%TO.N,GND*%
X111820000Y-133300000D03*
D24*
%TO.P,J4,6,Shield*%
X109930000Y-129275000D03*
D25*
X109000000Y-134725000D03*
D26*
X112060000Y-129150000D03*
D27*
X108750000Y-132962500D03*
D28*
X112030000Y-134425000D03*
D29*
X110700000Y-134987500D03*
D24*
X109930000Y-134725000D03*
D27*
X108750000Y-131037500D03*
D26*
X112060000Y-134900000D03*
D28*
X112030000Y-129575000D03*
D25*
X109000000Y-129275000D03*
D29*
X110700000Y-129012500D03*
%TD*%
D30*
%TO.P,JP1,1,A*%
%TO.N,/CM4 GPIO/EEPROM_nWP*%
X156140000Y-134050000D03*
D31*
%TO.P,JP1,2,B*%
%TO.N,GND*%
X157440000Y-134050000D03*
%TD*%
D20*
%TO.P,C1,1*%
%TO.N,+5V*%
X157870000Y-104365000D03*
%TO.P,C1,2*%
%TO.N,GND*%
X156320000Y-104365000D03*
%TD*%
D32*
%TO.P,U2,1,D+*%
%TO.N,/CM4 High Speed/USB2_P*%
X116525000Y-132040000D03*
%TO.P,U2,2,D-*%
%TO.N,/CM4 High Speed/USB2_N*%
X116525000Y-131340000D03*
%TO.P,U2,3,GND*%
%TO.N,GND*%
X115675000Y-131690000D03*
%TD*%
D33*
%TO.P,Module1,1,GND*%
%TO.N,GND*%
X152430000Y-105180000D03*
%TO.P,Module1,2,GND*%
X149350000Y-105180000D03*
%TO.P,Module1,3,Ethernet_Pair3_P*%
%TO.N,Net-(Module1-Pad3)*%
X152430000Y-104780000D03*
%TO.P,Module1,4,Ethernet_Pair1_P*%
%TO.N,Net-(Module1-Pad4)*%
X149350000Y-104780000D03*
%TO.P,Module1,5,Ethernet_Pair3_N*%
%TO.N,Net-(Module1-Pad5)*%
X152430000Y-104380000D03*
%TO.P,Module1,6,Ethernet_Pair1_N*%
%TO.N,Net-(Module1-Pad6)*%
X149350000Y-104380000D03*
%TO.P,Module1,7,GND*%
%TO.N,GND*%
X152430000Y-103980000D03*
%TO.P,Module1,8,GND*%
X149350000Y-103980000D03*
%TO.P,Module1,9,Ethernet_Pair2_N*%
%TO.N,Net-(Module1-Pad9)*%
X152430000Y-103580000D03*
%TO.P,Module1,10,Ethernet_Pair0_N*%
%TO.N,Net-(Module1-Pad10)*%
X149350000Y-103580000D03*
%TO.P,Module1,11,Ethernet_Pair2_P*%
%TO.N,Net-(Module1-Pad11)*%
X152430000Y-103180000D03*
%TO.P,Module1,12,Ethernet_Pair0_P*%
%TO.N,Net-(Module1-Pad12)*%
X149350000Y-103180000D03*
%TO.P,Module1,13,GND*%
%TO.N,GND*%
X152430000Y-102780000D03*
%TO.P,Module1,14,GND*%
X149350000Y-102780000D03*
%TO.P,Module1,15,Ethernet_nLED3(3.3v)*%
%TO.N,Net-(Module1-Pad15)*%
X152430000Y-102380000D03*
%TO.P,Module1,16,Ethernet_SYNC_IN(1.8v)*%
%TO.N,Net-(Module1-Pad16)*%
X149350000Y-102380000D03*
%TO.P,Module1,17,Ethernet_nLED2(3.3v)*%
%TO.N,Net-(Module1-Pad17)*%
X152430000Y-101980000D03*
%TO.P,Module1,18,Ethernet_SYNC_OUT(1.8v)*%
%TO.N,Net-(Module1-Pad18)*%
X149350000Y-101980000D03*
%TO.P,Module1,19,Ethernet_nLED1(3.3v)*%
%TO.N,Net-(Module1-Pad19)*%
X152430000Y-101580000D03*
%TO.P,Module1,20,EEPROM_nWP*%
%TO.N,/CM4 GPIO/EEPROM_nWP*%
X149350000Y-101580000D03*
%TO.P,Module1,21,PI_nLED_Activity*%
%TO.N,/CM4 GPIO/nLED_Activity*%
X152430000Y-101180000D03*
%TO.P,Module1,22,GND*%
%TO.N,GND*%
X149350000Y-101180000D03*
%TO.P,Module1,23,GND*%
X152430000Y-100780000D03*
%TO.P,Module1,24,GPIO26*%
%TO.N,Net-(Module1-Pad24)*%
X149350000Y-100780000D03*
%TO.P,Module1,25,GPIO21*%
%TO.N,Net-(Module1-Pad25)*%
X152430000Y-100380000D03*
%TO.P,Module1,26,GPIO19*%
%TO.N,Net-(Module1-Pad26)*%
X149350000Y-100380000D03*
%TO.P,Module1,27,GPIO20*%
%TO.N,Net-(Module1-Pad27)*%
X152430000Y-99980000D03*
%TO.P,Module1,28,GPIO13*%
%TO.N,Net-(Module1-Pad28)*%
X149350000Y-99980000D03*
%TO.P,Module1,29,GPIO16*%
%TO.N,Net-(Module1-Pad29)*%
X152430000Y-99580000D03*
%TO.P,Module1,30,GPIO6*%
%TO.N,Net-(Module1-Pad30)*%
X149350000Y-99580000D03*
%TO.P,Module1,31,GPIO12*%
%TO.N,Net-(Module1-Pad31)*%
X152430000Y-99180000D03*
%TO.P,Module1,32,GND*%
%TO.N,GND*%
X149350000Y-99180000D03*
%TO.P,Module1,33,GND*%
X152430000Y-98780000D03*
%TO.P,Module1,34,GPIO5*%
%TO.N,Net-(Module1-Pad34)*%
X149350000Y-98780000D03*
%TO.P,Module1,35,ID_SC*%
%TO.N,Net-(Module1-Pad35)*%
X152430000Y-98380000D03*
%TO.P,Module1,36,ID_SD*%
%TO.N,Net-(Module1-Pad36)*%
X149350000Y-98380000D03*
%TO.P,Module1,37,GPIO7*%
%TO.N,/CM4 GPIO/GPIO7*%
X152430000Y-97980000D03*
%TO.P,Module1,38,GPIO11*%
%TO.N,/CM4 GPIO/GPIO11*%
X149350000Y-97980000D03*
%TO.P,Module1,39,GPIO8*%
%TO.N,/CM4 GPIO/GPIO8*%
X152430000Y-97580000D03*
%TO.P,Module1,40,GPIO9*%
%TO.N,/CM4 GPIO/GPIO9*%
X149350000Y-97580000D03*
%TO.P,Module1,41,GPIO25*%
%TO.N,Net-(Module1-Pad41)*%
X152430000Y-97180000D03*
%TO.P,Module1,42,GND*%
%TO.N,GND*%
X149350000Y-97180000D03*
%TO.P,Module1,43,GND*%
X152430000Y-96780000D03*
%TO.P,Module1,44,GPIO10*%
%TO.N,/CM4 GPIO/GPIO10*%
X149350000Y-96780000D03*
%TO.P,Module1,45,GPIO24*%
%TO.N,Net-(Module1-Pad45)*%
X152430000Y-96380000D03*
%TO.P,Module1,46,GPIO22*%
%TO.N,Net-(Module1-Pad46)*%
X149350000Y-96380000D03*
%TO.P,Module1,47,GPIO23*%
%TO.N,Net-(Module1-Pad47)*%
X152430000Y-95980000D03*
%TO.P,Module1,48,GPIO27*%
%TO.N,Net-(Module1-Pad48)*%
X149350000Y-95980000D03*
%TO.P,Module1,49,GPIO18*%
%TO.N,Net-(Module1-Pad49)*%
X152430000Y-95580000D03*
%TO.P,Module1,50,GPIO17*%
%TO.N,Net-(Module1-Pad50)*%
X149350000Y-95580000D03*
%TO.P,Module1,51,GPIO15*%
%TO.N,/CM4 GPIO/GPIO15*%
X152430000Y-95180000D03*
%TO.P,Module1,52,GND*%
%TO.N,GND*%
X149350000Y-95180000D03*
%TO.P,Module1,53,GND*%
X152430000Y-94780000D03*
%TO.P,Module1,54,GPIO4*%
%TO.N,Net-(Module1-Pad54)*%
X149350000Y-94780000D03*
%TO.P,Module1,55,GPIO14*%
%TO.N,/CM4 GPIO/GPIO14*%
X152430000Y-94380000D03*
%TO.P,Module1,56,GPIO3*%
%TO.N,/CM4 GPIO/GPIO3*%
X149350000Y-94380000D03*
%TO.P,Module1,57,SD_CLK*%
%TO.N,Net-(Module1-Pad57)*%
X152430000Y-93980000D03*
%TO.P,Module1,58,GPIO2*%
%TO.N,/CM4 GPIO/GPIO2*%
X149350000Y-93980000D03*
%TO.P,Module1,59,GND*%
%TO.N,GND*%
X152430000Y-93580000D03*
%TO.P,Module1,60,GND*%
X149350000Y-93580000D03*
%TO.P,Module1,61,SD_DAT3*%
%TO.N,Net-(Module1-Pad61)*%
X152430000Y-93180000D03*
%TO.P,Module1,62,SD_CMD*%
%TO.N,Net-(Module1-Pad62)*%
X149350000Y-93180000D03*
%TO.P,Module1,63,SD_DAT0*%
%TO.N,Net-(Module1-Pad63)*%
X152430000Y-92780000D03*
%TO.P,Module1,64,SD_DAT5*%
%TO.N,Net-(Module1-Pad64)*%
X149350000Y-92780000D03*
%TO.P,Module1,65,GND*%
%TO.N,GND*%
X152430000Y-92380000D03*
%TO.P,Module1,66,GND*%
X149350000Y-92380000D03*
%TO.P,Module1,67,SD_DAT1*%
%TO.N,Net-(Module1-Pad67)*%
X152430000Y-91980000D03*
%TO.P,Module1,68,SD_DAT4*%
%TO.N,Net-(Module1-Pad68)*%
X149350000Y-91980000D03*
%TO.P,Module1,69,SD_DAT2*%
%TO.N,Net-(Module1-Pad69)*%
X152430000Y-91580000D03*
%TO.P,Module1,70,SD_DAT7*%
%TO.N,Net-(Module1-Pad70)*%
X149350000Y-91580000D03*
%TO.P,Module1,71,GND*%
%TO.N,GND*%
X152430000Y-91180000D03*
%TO.P,Module1,72,SD_DAT6*%
%TO.N,Net-(Module1-Pad72)*%
X149350000Y-91180000D03*
%TO.P,Module1,73,SD_VDD_Override*%
%TO.N,Net-(Module1-Pad73)*%
X152430000Y-90780000D03*
%TO.P,Module1,74,GND*%
%TO.N,GND*%
X149350000Y-90780000D03*
%TO.P,Module1,75,SD_PWR_ON*%
%TO.N,Net-(Module1-Pad75)*%
X152430000Y-90380000D03*
%TO.P,Module1,76,Reserved*%
%TO.N,Net-(Module1-Pad76)*%
X149350000Y-90380000D03*
%TO.P,Module1,77,+5v_(Input)*%
%TO.N,+5V*%
X152430000Y-89980000D03*
%TO.P,Module1,78,GPIO_VREF(1.8v/3.3v_Input)*%
%TO.N,+3.3V*%
X149350000Y-89980000D03*
%TO.P,Module1,79,+5v_(Input)*%
%TO.N,+5V*%
X152430000Y-89580000D03*
%TO.P,Module1,80,SCL0*%
%TO.N,Net-(Module1-Pad80)*%
X149350000Y-89580000D03*
%TO.P,Module1,81,+5v_(Input)*%
%TO.N,+5V*%
X152430000Y-89180000D03*
%TO.P,Module1,82,SDA0*%
%TO.N,Net-(Module1-Pad82)*%
X149350000Y-89180000D03*
%TO.P,Module1,83,+5v_(Input)*%
%TO.N,+5V*%
X152430000Y-88780000D03*
%TO.P,Module1,84,+3.3v_(Output)*%
%TO.N,+3.3V*%
X149350000Y-88780000D03*
%TO.P,Module1,85,+5v_(Input)*%
%TO.N,+5V*%
X152430000Y-88380000D03*
%TO.P,Module1,86,+3.3v_(Output)*%
%TO.N,+3.3V*%
X149350000Y-88380000D03*
%TO.P,Module1,87,+5v_(Input)*%
%TO.N,+5V*%
X152430000Y-87980000D03*
%TO.P,Module1,88,+1.8v_(Output)*%
%TO.N,+1.8V*%
X149350000Y-87980000D03*
%TO.P,Module1,89,WiFi_nDisable*%
%TO.N,Net-(Module1-Pad89)*%
X152430000Y-87580000D03*
%TO.P,Module1,90,+1.8v_(Output)*%
%TO.N,+1.8V*%
X149350000Y-87580000D03*
%TO.P,Module1,91,BT_nDisable*%
%TO.N,Net-(Module1-Pad91)*%
X152430000Y-87180000D03*
%TO.P,Module1,92,RUN_PG*%
%TO.N,Net-(Module1-Pad92)*%
X149350000Y-87180000D03*
%TO.P,Module1,93,nRPIBOOT*%
%TO.N,/CM4 GPIO/nRPIBOOT*%
X152430000Y-86780000D03*
%TO.P,Module1,94,AnalogIP0*%
%TO.N,Net-(Module1-Pad94)*%
X149350000Y-86780000D03*
%TO.P,Module1,95,nPI_LED_PWR*%
%TO.N,/CM4 GPIO/nPWR_LED*%
X152430000Y-86380000D03*
%TO.P,Module1,96,AnalogIP1*%
%TO.N,Net-(Module1-Pad96)*%
X149350000Y-86380000D03*
%TO.P,Module1,97,Camera_GPIO*%
%TO.N,Net-(Module1-Pad97)*%
X152430000Y-85980000D03*
%TO.P,Module1,98,GND*%
%TO.N,GND*%
X149350000Y-85980000D03*
%TO.P,Module1,99,Global_EN*%
%TO.N,Net-(Module1-Pad99)*%
X152430000Y-85580000D03*
%TO.P,Module1,100,nEXTRST*%
%TO.N,Net-(Module1-Pad100)*%
X149350000Y-85580000D03*
%TO.P,Module1,101,USB_OTG_ID*%
%TO.N,/CM4 High Speed/USB_OTG_ID*%
X118510000Y-105180000D03*
%TO.P,Module1,102,PCIe_CLK_nREQ*%
%TO.N,Net-(Module1-Pad102)*%
X115430000Y-105180000D03*
%TO.P,Module1,103,USB2_N*%
%TO.N,/CM4 High Speed/USB2_N*%
X118510000Y-104780000D03*
%TO.P,Module1,104,Reserved*%
%TO.N,Net-(Module1-Pad104)*%
X115430000Y-104780000D03*
%TO.P,Module1,105,USB2_P*%
%TO.N,/CM4 High Speed/USB2_P*%
X118510000Y-104380000D03*
%TO.P,Module1,106,Reserved*%
%TO.N,Net-(Module1-Pad106)*%
X115430000Y-104380000D03*
%TO.P,Module1,107,GND*%
%TO.N,GND*%
X118510000Y-103980000D03*
%TO.P,Module1,108,GND*%
X115430000Y-103980000D03*
%TO.P,Module1,109,PCIe_nRST*%
%TO.N,Net-(Module1-Pad109)*%
X118510000Y-103580000D03*
%TO.P,Module1,110,PCIe_CLK_P*%
%TO.N,Net-(Module1-Pad110)*%
X115430000Y-103580000D03*
%TO.P,Module1,111,VDAC_COMP*%
%TO.N,Net-(Module1-Pad111)*%
X118510000Y-103180000D03*
%TO.P,Module1,112,PCIe_CLK_N*%
%TO.N,Net-(Module1-Pad112)*%
X115430000Y-103180000D03*
%TO.P,Module1,113,GND*%
%TO.N,GND*%
X118510000Y-102780000D03*
%TO.P,Module1,114,GND*%
X115430000Y-102780000D03*
%TO.P,Module1,115,CAM1_D0_N*%
%TO.N,Net-(Module1-Pad115)*%
X118510000Y-102380000D03*
%TO.P,Module1,116,PCIe_RX_P*%
%TO.N,Net-(Module1-Pad116)*%
X115430000Y-102380000D03*
%TO.P,Module1,117,CAM1_D0_P*%
%TO.N,Net-(Module1-Pad117)*%
X118510000Y-101980000D03*
%TO.P,Module1,118,PCIe_RX_N*%
%TO.N,Net-(Module1-Pad118)*%
X115430000Y-101980000D03*
%TO.P,Module1,119,GND*%
%TO.N,GND*%
X118510000Y-101580000D03*
%TO.P,Module1,120,GND*%
X115430000Y-101580000D03*
%TO.P,Module1,121,CAM1_D1_N*%
%TO.N,Net-(Module1-Pad121)*%
X118510000Y-101180000D03*
%TO.P,Module1,122,PCIe_TX_P*%
%TO.N,Net-(Module1-Pad122)*%
X115430000Y-101180000D03*
%TO.P,Module1,123,CAM1_D1_P*%
%TO.N,Net-(Module1-Pad123)*%
X118510000Y-100780000D03*
%TO.P,Module1,124,PCIe_TX_N*%
%TO.N,Net-(Module1-Pad124)*%
X115430000Y-100780000D03*
%TO.P,Module1,125,GND*%
%TO.N,GND*%
X118510000Y-100380000D03*
%TO.P,Module1,126,GND*%
X115430000Y-100380000D03*
%TO.P,Module1,127,CAM1_C_N*%
%TO.N,Net-(Module1-Pad127)*%
X118510000Y-99980000D03*
%TO.P,Module1,128,CAM0_D0_N*%
%TO.N,Net-(Module1-Pad128)*%
X115430000Y-99980000D03*
%TO.P,Module1,129,CAM1_C_P*%
%TO.N,Net-(Module1-Pad129)*%
X118510000Y-99580000D03*
%TO.P,Module1,130,CAM0_D0_P*%
%TO.N,Net-(Module1-Pad130)*%
X115430000Y-99580000D03*
%TO.P,Module1,131,GND*%
%TO.N,GND*%
X118510000Y-99180000D03*
%TO.P,Module1,132,GND*%
X115430000Y-99180000D03*
%TO.P,Module1,133,CAM1_D2_N*%
%TO.N,Net-(Module1-Pad133)*%
X118510000Y-98780000D03*
%TO.P,Module1,134,CAM0_D1_N*%
%TO.N,Net-(Module1-Pad134)*%
X115430000Y-98780000D03*
%TO.P,Module1,135,CAM1_D2_P*%
%TO.N,Net-(Module1-Pad135)*%
X118510000Y-98380000D03*
%TO.P,Module1,136,CAM0_D1_P*%
%TO.N,Net-(Module1-Pad136)*%
X115430000Y-98380000D03*
%TO.P,Module1,137,GND*%
%TO.N,GND*%
X118510000Y-97980000D03*
%TO.P,Module1,138,GND*%
X115430000Y-97980000D03*
%TO.P,Module1,139,CAM1_D3_N*%
%TO.N,Net-(Module1-Pad139)*%
X118510000Y-97580000D03*
%TO.P,Module1,140,CAM0_C_N*%
%TO.N,Net-(Module1-Pad140)*%
X115430000Y-97580000D03*
%TO.P,Module1,141,CAM1_D3_P*%
%TO.N,Net-(Module1-Pad141)*%
X118510000Y-97180000D03*
%TO.P,Module1,142,CAM0_C_P*%
%TO.N,Net-(Module1-Pad142)*%
X115430000Y-97180000D03*
%TO.P,Module1,143,HDMI1_HOTPLUG*%
%TO.N,Net-(Module1-Pad143)*%
X118510000Y-96780000D03*
%TO.P,Module1,144,GND*%
%TO.N,GND*%
X115430000Y-96780000D03*
%TO.P,Module1,145,HDMI1_SDA*%
%TO.N,Net-(Module1-Pad145)*%
X118510000Y-96380000D03*
%TO.P,Module1,146,HDMI1_TX2_P*%
%TO.N,Net-(Module1-Pad146)*%
X115430000Y-96380000D03*
%TO.P,Module1,147,HDMI1_SCL*%
%TO.N,Net-(Module1-Pad147)*%
X118510000Y-95980000D03*
%TO.P,Module1,148,HDMI1_TX2_N*%
%TO.N,Net-(Module1-Pad148)*%
X115430000Y-95980000D03*
%TO.P,Module1,149,HDMI1_CEC*%
%TO.N,Net-(Module1-Pad149)*%
X118510000Y-95580000D03*
%TO.P,Module1,150,GND*%
%TO.N,GND*%
X115430000Y-95580000D03*
%TO.P,Module1,151,HDMI0_CEC*%
%TO.N,Net-(Module1-Pad151)*%
X118510000Y-95180000D03*
%TO.P,Module1,152,HDMI1_TX1_P*%
%TO.N,Net-(Module1-Pad152)*%
X115430000Y-95180000D03*
%TO.P,Module1,153,HDMI0_HOTPLUG*%
%TO.N,Net-(Module1-Pad153)*%
X118510000Y-94780000D03*
%TO.P,Module1,154,HDMI1_TX1_N*%
%TO.N,Net-(Module1-Pad154)*%
X115430000Y-94780000D03*
%TO.P,Module1,155,GND*%
%TO.N,GND*%
X118510000Y-94380000D03*
%TO.P,Module1,156,GND*%
X115430000Y-94380000D03*
%TO.P,Module1,157,DSI0_D0_N*%
%TO.N,Net-(Module1-Pad157)*%
X118510000Y-93980000D03*
%TO.P,Module1,158,HDMI1_TX0_P*%
%TO.N,Net-(Module1-Pad158)*%
X115430000Y-93980000D03*
%TO.P,Module1,159,DSI0_D0_P*%
%TO.N,Net-(Module1-Pad159)*%
X118510000Y-93580000D03*
%TO.P,Module1,160,HDMI1_TX0_N*%
%TO.N,Net-(Module1-Pad160)*%
X115430000Y-93580000D03*
%TO.P,Module1,161,GND*%
%TO.N,GND*%
X118510000Y-93180000D03*
%TO.P,Module1,162,GND*%
X115430000Y-93180000D03*
%TO.P,Module1,163,DSI0_D1_N*%
%TO.N,Net-(Module1-Pad163)*%
X118510000Y-92780000D03*
%TO.P,Module1,164,HDMI1_CLK_P*%
%TO.N,Net-(Module1-Pad164)*%
X115430000Y-92780000D03*
%TO.P,Module1,165,DSI0_D1_P*%
%TO.N,Net-(Module1-Pad165)*%
X118510000Y-92380000D03*
%TO.P,Module1,166,HDMI1_CLK_N*%
%TO.N,Net-(Module1-Pad166)*%
X115430000Y-92380000D03*
%TO.P,Module1,167,GND*%
%TO.N,GND*%
X118510000Y-91980000D03*
%TO.P,Module1,168,GND*%
X115430000Y-91980000D03*
%TO.P,Module1,169,DSI0_C_N*%
%TO.N,Net-(Module1-Pad169)*%
X118510000Y-91580000D03*
%TO.P,Module1,170,HDMI0_TX2_P*%
%TO.N,Net-(Module1-Pad170)*%
X115430000Y-91580000D03*
%TO.P,Module1,171,DSI0_C_P*%
%TO.N,Net-(Module1-Pad171)*%
X118510000Y-91180000D03*
%TO.P,Module1,172,HDMI0_TX2_N*%
%TO.N,Net-(Module1-Pad172)*%
X115430000Y-91180000D03*
%TO.P,Module1,173,GND*%
%TO.N,GND*%
X118510000Y-90780000D03*
%TO.P,Module1,174,GND*%
X115430000Y-90780000D03*
%TO.P,Module1,175,DSI1_D0_N*%
%TO.N,Net-(Module1-Pad175)*%
X118510000Y-90380000D03*
%TO.P,Module1,176,HDMI0_TX1_P*%
%TO.N,Net-(Module1-Pad176)*%
X115430000Y-90380000D03*
%TO.P,Module1,177,DSI1_D0_P*%
%TO.N,Net-(Module1-Pad177)*%
X118510000Y-89980000D03*
%TO.P,Module1,178,HDMI0_TX1_N*%
%TO.N,Net-(Module1-Pad178)*%
X115430000Y-89980000D03*
%TO.P,Module1,179,GND*%
%TO.N,GND*%
X118510000Y-89580000D03*
%TO.P,Module1,180,GND*%
X115430000Y-89580000D03*
%TO.P,Module1,181,DSI1_D1_N*%
%TO.N,Net-(Module1-Pad181)*%
X118510000Y-89180000D03*
%TO.P,Module1,182,HDMI0_TX0_P*%
%TO.N,Net-(Module1-Pad182)*%
X115430000Y-89180000D03*
%TO.P,Module1,183,DSI1_D1_P*%
%TO.N,Net-(Module1-Pad183)*%
X118510000Y-88780000D03*
%TO.P,Module1,184,HDMI0_TX0_N*%
%TO.N,Net-(Module1-Pad184)*%
X115430000Y-88780000D03*
%TO.P,Module1,185,GND*%
%TO.N,GND*%
X118510000Y-88380000D03*
%TO.P,Module1,186,GND*%
X115430000Y-88380000D03*
%TO.P,Module1,187,DSI1_C_N*%
%TO.N,Net-(Module1-Pad187)*%
X118510000Y-87980000D03*
%TO.P,Module1,188,HDMI0_CLK_P*%
%TO.N,Net-(Module1-Pad188)*%
X115430000Y-87980000D03*
%TO.P,Module1,189,DSI1_C_P*%
%TO.N,Net-(Module1-Pad189)*%
X118510000Y-87580000D03*
%TO.P,Module1,190,HDMI0_CLK_N*%
%TO.N,Net-(Module1-Pad190)*%
X115430000Y-87580000D03*
%TO.P,Module1,191,GND*%
%TO.N,/CM4 GPIO/GPIO13*%
X118510000Y-87180000D03*
%TO.P,Module1,192,GND*%
%TO.N,/CM4 GPIO/GPIO12*%
X115430000Y-87180000D03*
%TO.P,Module1,193,DSI1_D2_N*%
%TO.N,Net-(Module1-Pad193)*%
X118510000Y-86780000D03*
%TO.P,Module1,194,DSI1_D3_N*%
%TO.N,Net-(Module1-Pad194)*%
X115430000Y-86780000D03*
%TO.P,Module1,195,DSI1_D2_P*%
%TO.N,Net-(Module1-Pad195)*%
X118510000Y-86380000D03*
%TO.P,Module1,196,DSI1_D3_P*%
%TO.N,Net-(Module1-Pad196)*%
X115430000Y-86380000D03*
%TO.P,Module1,197,GND*%
%TO.N,GND*%
X118510000Y-85980000D03*
%TO.P,Module1,198,GND*%
X115430000Y-85980000D03*
%TO.P,Module1,199,HDMI0_SDA*%
%TO.N,Net-(Module1-Pad199)*%
X118510000Y-85580000D03*
%TO.P,Module1,200,HDMI0_SCL*%
%TO.N,Net-(Module1-Pad200)*%
X115430000Y-85580000D03*
%TD*%
D34*
%TO.P,R1,1*%
%TO.N,+5V*%
X156420000Y-100530000D03*
%TO.P,R1,2*%
%TO.N,Net-(R1-Pad2)*%
X158070000Y-100530000D03*
%TD*%
D35*
%TO.P,J1,1,Pin_1*%
%TO.N,+3.3V*%
X197260000Y-76945000D03*
D36*
%TO.P,J1,2,Pin_2*%
%TO.N,+5V*%
X199800000Y-76945000D03*
%TO.P,J1,3,Pin_3*%
%TO.N,/CM4 GPIO/GPIO2*%
X197260000Y-79485000D03*
%TO.P,J1,4,Pin_4*%
%TO.N,+5V*%
X199800000Y-79485000D03*
%TO.P,J1,5,Pin_5*%
%TO.N,/CM4 GPIO/GPIO3*%
X197260000Y-82025000D03*
%TO.P,J1,6,Pin_6*%
%TO.N,GND*%
X199800000Y-82025000D03*
%TO.P,J1,7,Pin_7*%
%TO.N,unconnected-(J1-Pad7)*%
X197260000Y-84565000D03*
%TO.P,J1,8,Pin_8*%
%TO.N,N/C*%
X199800000Y-84565000D03*
%TO.P,J1,9,Pin_9*%
%TO.N,GND*%
X197260000Y-87105000D03*
%TO.P,J1,10,Pin_10*%
%TO.N,N/C*%
X199800000Y-87105000D03*
%TO.P,J1,11,Pin_11*%
%TO.N,unconnected-(J1-Pad11)*%
X197260000Y-89645000D03*
%TO.P,J1,12,Pin_12*%
%TO.N,unconnected-(J1-Pad12)*%
X199800000Y-89645000D03*
%TO.P,J1,13,Pin_13*%
%TO.N,Net-(J1-Pad13)*%
X197260000Y-92185000D03*
%TO.P,J1,14,Pin_14*%
%TO.N,GND*%
X199800000Y-92185000D03*
%TO.P,J1,15,Pin_15*%
%TO.N,Net-(J1-Pad15)*%
X197260000Y-94725000D03*
%TO.P,J1,16,Pin_16*%
%TO.N,unconnected-(J1-Pad16)*%
X199800000Y-94725000D03*
%TO.P,J1,17,Pin_17*%
%TO.N,+3.3V*%
X197260000Y-97265000D03*
%TO.P,J1,18,Pin_18*%
%TO.N,unconnected-(J1-Pad18)*%
X199800000Y-97265000D03*
%TO.P,J1,19,Pin_19*%
%TO.N,unconnected-(J1-Pad19)*%
X197260000Y-99805000D03*
%TO.P,J1,20,Pin_20*%
%TO.N,GND*%
X199800000Y-99805000D03*
%TO.P,J1,21,Pin_21*%
%TO.N,unconnected-(J1-Pad21)*%
X197260000Y-102345000D03*
%TO.P,J1,22,Pin_22*%
%TO.N,unconnected-(J1-Pad22)*%
X199800000Y-102345000D03*
%TO.P,J1,23,Pin_23*%
%TO.N,unconnected-(J1-Pad23)*%
X197260000Y-104885000D03*
%TO.P,J1,24,Pin_24*%
%TO.N,unconnected-(J1-Pad24)*%
X199800000Y-104885000D03*
%TO.P,J1,25,Pin_25*%
%TO.N,GND*%
X197260000Y-107425000D03*
%TO.P,J1,26,Pin_26*%
%TO.N,unconnected-(J1-Pad26)*%
X199800000Y-107425000D03*
%TO.P,J1,27,Pin_27*%
%TO.N,unconnected-(J1-Pad27)*%
X197260000Y-109965000D03*
%TO.P,J1,28,Pin_28*%
%TO.N,unconnected-(J1-Pad28)*%
X199800000Y-109965000D03*
%TO.P,J1,29,Pin_29*%
%TO.N,unconnected-(J1-Pad29)*%
X197260000Y-112505000D03*
%TO.P,J1,30,Pin_30*%
%TO.N,GND*%
X199800000Y-112505000D03*
%TO.P,J1,31,Pin_31*%
%TO.N,unconnected-(J1-Pad31)*%
X197260000Y-115045000D03*
%TO.P,J1,32,Pin_32*%
%TO.N,unconnected-(J1-Pad32)*%
X199800000Y-115045000D03*
%TO.P,J1,33,Pin_33*%
%TO.N,unconnected-(J1-Pad33)*%
X197260000Y-117585000D03*
%TO.P,J1,34,Pin_34*%
%TO.N,GND*%
X199800000Y-117585000D03*
%TO.P,J1,35,Pin_35*%
%TO.N,unconnected-(J1-Pad35)*%
X197260000Y-120125000D03*
%TO.P,J1,36,Pin_36*%
%TO.N,unconnected-(J1-Pad36)*%
X199800000Y-120125000D03*
%TO.P,J1,37,Pin_37*%
%TO.N,/CM4 GPIO/nRPIBOOT*%
X197260000Y-122665000D03*
%TO.P,J1,38,Pin_38*%
%TO.N,unconnected-(J1-Pad38)*%
X199800000Y-122665000D03*
%TO.P,J1,39,Pin_39*%
%TO.N,GND*%
X197260000Y-125205000D03*
%TO.P,J1,40,Pin_40*%
%TO.N,unconnected-(J1-Pad40)*%
X199800000Y-125205000D03*
%TD*%
D37*
%TO.N,GND*%
X143220000Y-66440000D03*
%TO.N,/CM4 GPIO/GPIO13*%
X143990000Y-71240000D03*
%TO.N,/CM4 GPIO/GPIO12*%
X144580000Y-71840000D03*
X133350000Y-81000000D03*
X116241377Y-86925123D03*
%TO.N,GND*%
X127760000Y-65720000D03*
%TO.N,/CM4 GPIO/GPIO14*%
X153280000Y-91180000D03*
%TO.N,/CM4 GPIO/GPIO15*%
X151590000Y-95410000D03*
%TO.N,GND*%
X161730000Y-77546500D03*
X116800000Y-90610000D03*
X180120000Y-92600000D03*
X194950000Y-87150000D03*
X150830000Y-99340000D03*
X150610000Y-95410000D03*
X156320000Y-105807500D03*
X113730000Y-136740000D03*
X162240000Y-87500000D03*
X150590000Y-90930000D03*
X154690000Y-136740000D03*
X114350000Y-131690000D03*
X148350000Y-97120000D03*
X148220000Y-104000000D03*
X116800000Y-101370000D03*
X173916500Y-94610000D03*
X123790000Y-132670000D03*
%TO.N,+5V*%
X182750000Y-71210000D03*
X180270000Y-93820000D03*
%TO.N,+3.3V*%
X147180000Y-83880000D03*
X192770000Y-78550000D03*
X157250000Y-81280000D03*
%TO.N,/CM4 GPIO/nRPIBOOT*%
X169680000Y-106330000D03*
X153406121Y-87090345D03*
%TO.N,/CM4 GPIO/GPIO8*%
X153490000Y-95880000D03*
X155767000Y-96050000D03*
%TO.N,/CM4 GPIO/GPIO11*%
X160731025Y-98428974D03*
X151270000Y-97990000D03*
%TO.N,/CM4 GPIO/GPIO9*%
X150923738Y-97373021D03*
X155900000Y-97720000D03*
%TO.N,/CM4 GPIO/GPIO10*%
X150697405Y-96702698D03*
X157680000Y-98610000D03*
%TO.N,/CM4 GPIO/GPIO2*%
X156680000Y-93180000D03*
X150680000Y-93870000D03*
%TO.N,Net-(J4-Pad1)*%
X117000000Y-128840000D03*
X118820000Y-133550000D03*
%TO.N,/CM4 GPIO/EEPROM_nWP*%
X153310000Y-129500000D03*
%TO.N,/CM4 GPIO/nLED_Activity*%
X159200000Y-85836500D03*
X165150000Y-79830000D03*
X153420000Y-101160000D03*
X155213500Y-99590000D03*
%TO.N,/CM4 GPIO/nPWR_LED*%
X160540000Y-86930000D03*
X153506500Y-86390000D03*
X160730000Y-76090000D03*
%TO.N,/CM4 High Speed/USB_OTG_ID*%
X120980000Y-130370000D03*
X124540000Y-129590000D03*
%TO.N,/CM4 GPIO/GPIO3*%
X156840000Y-94150000D03*
X150628689Y-94575640D03*
%TD*%
D38*
%TO.N,/CM4 GPIO/GPIO13*%
X143110000Y-72290000D02*
X143990000Y-71410000D01*
X141277216Y-72290000D02*
X143110000Y-72290000D01*
X126387216Y-87180000D02*
X141277216Y-72290000D01*
X118510000Y-87180000D02*
X126387216Y-87180000D01*
X143990000Y-71410000D02*
X143990000Y-71240000D01*
%TO.N,/CM4 GPIO/GPIO12*%
X141440000Y-72910000D02*
X133350000Y-81000000D01*
X143510000Y-72910000D02*
X141440000Y-72910000D01*
X144580000Y-71840000D02*
X143510000Y-72910000D01*
X115986500Y-87180000D02*
X116241377Y-86925123D01*
X115430000Y-87180000D02*
X115986500Y-87180000D01*
%TO.N,/CM4 GPIO/GPIO14*%
X153280000Y-94179022D02*
X153280000Y-91180000D01*
X153079022Y-94380000D02*
X153280000Y-94179022D01*
X152430000Y-94380000D02*
X153079022Y-94380000D01*
%TO.N,/CM4 GPIO/GPIO15*%
X151820000Y-95180000D02*
X151590000Y-95410000D01*
X152430000Y-95180000D02*
X151820000Y-95180000D01*
%TO.N,GND*%
X151230000Y-94780000D02*
X152430000Y-94780000D01*
X151210000Y-94800000D02*
X151230000Y-94780000D01*
X150610000Y-95500000D02*
X150610000Y-95410000D01*
X151890000Y-96780000D02*
X150610000Y-95500000D01*
X152430000Y-96780000D02*
X151890000Y-96780000D01*
D39*
%TO.N,+5V*%
X155020000Y-69460000D02*
X157475000Y-71915000D01*
X137510000Y-69460000D02*
X155020000Y-69460000D01*
X134570000Y-66520000D02*
X137510000Y-69460000D01*
X134570000Y-64535000D02*
X134570000Y-66520000D01*
D40*
X157475000Y-71915000D02*
X154660000Y-74730000D01*
X158500000Y-70890000D02*
X157475000Y-71915000D01*
D39*
X154675000Y-64565000D02*
X161000000Y-70890000D01*
X149210000Y-64565000D02*
X154675000Y-64565000D01*
D38*
%TO.N,GND*%
X150380000Y-95180000D02*
X150610000Y-95410000D01*
X117340489Y-99700489D02*
X117030489Y-100010489D01*
X118510000Y-91980000D02*
X117230000Y-91980000D01*
X116590000Y-101580000D02*
X116800000Y-101370000D01*
X172130000Y-94570000D02*
X172170000Y-94610000D01*
X155123586Y-136740000D02*
X154690000Y-136740000D01*
X148700978Y-105180000D02*
X148220000Y-104699022D01*
X152430000Y-102780000D02*
X151780978Y-102780000D01*
X116865000Y-100445000D02*
X116800000Y-100510000D01*
X116320000Y-93180000D02*
X116800000Y-92700000D01*
X151780978Y-93580000D02*
X150590000Y-92389022D01*
X115430000Y-99180000D02*
X116200000Y-99180000D01*
X115430000Y-101580000D02*
X116590000Y-101580000D01*
X149999022Y-85980000D02*
X150590000Y-86570978D01*
X115430000Y-85980000D02*
X116079022Y-85980000D01*
X116800000Y-89100978D02*
X116800000Y-89310000D01*
X116800000Y-93319022D02*
X116800000Y-93070000D01*
X161700000Y-77516500D02*
X161700000Y-76567500D01*
X150900489Y-104299511D02*
X150900489Y-102190489D01*
X111820000Y-133867500D02*
X110700000Y-134987500D01*
X180295000Y-92595000D02*
X182695000Y-92595000D01*
X150830000Y-100349022D02*
X150830000Y-99340000D01*
X152430000Y-100780000D02*
X151780978Y-100780000D01*
X149350000Y-92380000D02*
X149999022Y-92380000D01*
X182695000Y-92595000D02*
X182715000Y-92615000D01*
X116800000Y-87900978D02*
X116800000Y-88000000D01*
X149999022Y-92380000D02*
X150249511Y-92129511D01*
X152430000Y-93580000D02*
X151780978Y-93580000D01*
X115430000Y-88380000D02*
X116079022Y-88380000D01*
X116800000Y-89310000D02*
X116800000Y-90610000D01*
X116800000Y-91550000D02*
X116800000Y-91259022D01*
X162240000Y-87500000D02*
X162250000Y-87510000D01*
X151780978Y-103980000D02*
X150900489Y-103099511D01*
X115430000Y-96780000D02*
X116079022Y-96780000D01*
X116079022Y-89580000D02*
X115430000Y-89580000D01*
X156320000Y-104365000D02*
X156320000Y-106875000D01*
X116729511Y-103329511D02*
X116729511Y-103110489D01*
X116079022Y-102780000D02*
X116729511Y-102129511D01*
X151780978Y-105180000D02*
X150900489Y-104299511D01*
X149350000Y-90780000D02*
X150440000Y-90780000D01*
X117480000Y-88380000D02*
X116800000Y-89060000D01*
X116800000Y-101719022D02*
X116800000Y-101370000D01*
X150440000Y-90780000D02*
X150590000Y-90930000D01*
X116800000Y-92700000D02*
X116800000Y-92110000D01*
X152430000Y-91180000D02*
X150840000Y-91180000D01*
X150670000Y-99180000D02*
X150830000Y-99340000D01*
X118510000Y-94380000D02*
X117860978Y-94380000D01*
X116729511Y-103110489D02*
X116729511Y-102129511D01*
X115430000Y-94380000D02*
X116079022Y-94380000D01*
X116630000Y-90780000D02*
X116800000Y-90610000D01*
X148410000Y-97180000D02*
X148350000Y-97120000D01*
X116800000Y-100380000D02*
X116865000Y-100445000D01*
X116800000Y-94859022D02*
X116800000Y-93659022D01*
X148220000Y-103260978D02*
X148220000Y-104000000D01*
X112060000Y-134900000D02*
X112060000Y-135070000D01*
X117340489Y-98500489D02*
X117340489Y-99700489D01*
X150590000Y-91789022D02*
X150590000Y-90930000D01*
X148220000Y-104699022D02*
X148220000Y-104000000D01*
X116079022Y-95580000D02*
X116800000Y-94859022D01*
X111972500Y-134987500D02*
X112060000Y-134900000D01*
X116200000Y-99180000D02*
X116440000Y-99420000D01*
X150830000Y-101829022D02*
X150830000Y-99790000D01*
X116079022Y-97980000D02*
X116440000Y-98340978D01*
X117860978Y-102780000D02*
X116800000Y-101719022D01*
X116440000Y-99420000D02*
X117030489Y-100010489D01*
X150840000Y-91180000D02*
X150590000Y-90930000D01*
X148240000Y-103980000D02*
X148220000Y-104000000D01*
X116800000Y-92110000D02*
X116800000Y-91550000D01*
X152430000Y-98780000D02*
X151390000Y-98780000D01*
X150830000Y-99829022D02*
X150830000Y-99790000D01*
X118510000Y-101580000D02*
X117010000Y-101580000D01*
X149350000Y-99180000D02*
X150670000Y-99180000D01*
X151780978Y-102780000D02*
X150830000Y-101829022D01*
X162250000Y-87510000D02*
X163250000Y-87510000D01*
X116440000Y-97140978D02*
X116440000Y-98610000D01*
X118510000Y-100380000D02*
X116930000Y-100380000D01*
X118510000Y-99180000D02*
X117860978Y-99180000D01*
X150610000Y-95410000D02*
X151240000Y-94780000D01*
X115430000Y-97980000D02*
X116079022Y-97980000D01*
X115430000Y-90780000D02*
X116630000Y-90780000D01*
X150590000Y-92389022D02*
X150590000Y-91189022D01*
X117860978Y-99180000D02*
X117340489Y-99700489D01*
X172170000Y-94610000D02*
X173916500Y-94610000D01*
X117860978Y-94380000D02*
X116800000Y-93319022D01*
X150900489Y-103099511D02*
X150900489Y-102190489D01*
X150900489Y-101899511D02*
X150830000Y-101829022D01*
X116970000Y-90780000D02*
X116800000Y-90610000D01*
X117860978Y-97980000D02*
X117340489Y-98500489D01*
X116800000Y-86700978D02*
X116800000Y-88000000D01*
X117230000Y-91980000D02*
X116800000Y-91550000D01*
X117520978Y-85980000D02*
X116800000Y-86700978D01*
X118510000Y-85980000D02*
X117520978Y-85980000D01*
X116079022Y-85980000D02*
X116800000Y-86700978D01*
X149350000Y-85980000D02*
X149999022Y-85980000D01*
X157440000Y-134050000D02*
X157440000Y-134423586D01*
X149999022Y-93580000D02*
X150249511Y-93329511D01*
X177560000Y-92515000D02*
X179900000Y-92515000D01*
X151780978Y-100780000D02*
X150830000Y-99829022D01*
X110700000Y-134912500D02*
X110700000Y-134987500D01*
X116729511Y-102129511D02*
X116800000Y-102059022D01*
X116079022Y-91980000D02*
X116800000Y-91259022D01*
X151780978Y-92380000D02*
X150590000Y-91189022D01*
X110700000Y-134987500D02*
X111972500Y-134987500D01*
X111922500Y-129012500D02*
X112060000Y-129150000D01*
X152430000Y-103980000D02*
X151780978Y-103980000D01*
X115675000Y-131690000D02*
X114350000Y-131690000D01*
X149350000Y-102780000D02*
X148700978Y-102780000D01*
X149999022Y-101180000D02*
X150830000Y-100349022D01*
X116079022Y-94380000D02*
X116800000Y-93659022D01*
X111820000Y-133300000D02*
X111820000Y-133867500D01*
X150830000Y-99790000D02*
X150830000Y-99340000D01*
X115430000Y-91980000D02*
X116079022Y-91980000D01*
X115430000Y-103980000D02*
X116079022Y-103980000D01*
X108750000Y-130962500D02*
X108750000Y-131037500D01*
X150900489Y-102190489D02*
X150900489Y-101899511D01*
X118510000Y-89580000D02*
X117830000Y-89580000D01*
X116800000Y-88000000D02*
X116800000Y-89060000D01*
X115430000Y-95580000D02*
X116079022Y-95580000D01*
X118510000Y-93180000D02*
X117870000Y-93180000D01*
X116440000Y-98340978D02*
X116440000Y-98610000D01*
X115430000Y-100380000D02*
X116800000Y-100380000D01*
X116800000Y-100240978D02*
X116800000Y-100510000D01*
X116800000Y-91259022D02*
X116800000Y-90610000D01*
X118510000Y-103980000D02*
X117599022Y-103980000D01*
X149350000Y-93580000D02*
X149999022Y-93580000D01*
X117870000Y-93180000D02*
X116800000Y-92110000D01*
X150590000Y-91189022D02*
X150590000Y-90930000D01*
X115430000Y-102780000D02*
X116079022Y-102780000D01*
X148700978Y-102780000D02*
X148220000Y-103260978D01*
X125175000Y-131000000D02*
X125175000Y-131285000D01*
X118510000Y-90780000D02*
X116970000Y-90780000D01*
X117010000Y-101580000D02*
X116800000Y-101370000D01*
X149350000Y-103980000D02*
X148240000Y-103980000D01*
X117599022Y-103980000D02*
X116729511Y-103110489D01*
X149350000Y-101180000D02*
X149999022Y-101180000D01*
X116800000Y-102059022D02*
X116800000Y-101370000D01*
X116800000Y-89060000D02*
X116800000Y-89310000D01*
X125175000Y-131285000D02*
X123790000Y-132670000D01*
X118510000Y-97980000D02*
X117860978Y-97980000D01*
X116800000Y-90610000D02*
X116800000Y-90300978D01*
X115430000Y-93180000D02*
X116320000Y-93180000D01*
X112060000Y-129150000D02*
X111160000Y-129150000D01*
X117030489Y-100010489D02*
X116800000Y-100240978D01*
X150590000Y-86570978D02*
X150590000Y-90930000D01*
X179900000Y-92515000D02*
X180025000Y-92640000D01*
X150249511Y-92129511D02*
X150590000Y-91789022D01*
X149350000Y-105180000D02*
X148700978Y-105180000D01*
X116079022Y-88380000D02*
X116800000Y-89100978D01*
X117830000Y-89580000D02*
X116800000Y-90610000D01*
X116800000Y-90300978D02*
X116079022Y-89580000D01*
X150249511Y-93329511D02*
X150249511Y-92129511D01*
X109930000Y-130380000D02*
X109930000Y-134725000D01*
X112060000Y-135070000D02*
X113730000Y-136740000D01*
X116079022Y-96780000D02*
X116440000Y-97140978D01*
X149350000Y-97180000D02*
X148410000Y-97180000D01*
X161730000Y-77546500D02*
X161700000Y-77516500D01*
X118510000Y-88380000D02*
X117480000Y-88380000D01*
X116079022Y-103980000D02*
X116729511Y-103329511D01*
X111160000Y-129150000D02*
X109930000Y-130380000D01*
X152430000Y-105180000D02*
X151780978Y-105180000D01*
X116800000Y-100510000D02*
X116800000Y-101370000D01*
X118510000Y-102780000D02*
X117860978Y-102780000D01*
X116930000Y-100380000D02*
X116865000Y-100445000D01*
X149090000Y-95180000D02*
X150380000Y-95180000D01*
X151390000Y-98780000D02*
X150830000Y-99340000D01*
X114290000Y-131750000D02*
X114350000Y-131690000D01*
X157440000Y-134423586D02*
X155123586Y-136740000D01*
X152430000Y-92380000D02*
X151780978Y-92380000D01*
X116440000Y-98610000D02*
X116440000Y-99420000D01*
X116800000Y-93659022D02*
X116800000Y-92700000D01*
%TO.N,+5V*%
X157666500Y-103070000D02*
X157666500Y-102986500D01*
X152410000Y-89980000D02*
X154200000Y-89980000D01*
X177530000Y-93815000D02*
X177845000Y-94130000D01*
X159340000Y-104730000D02*
X157870000Y-103260000D01*
X179960000Y-94130000D02*
X180270000Y-93820000D01*
D40*
X154660000Y-88420000D02*
X154660000Y-89520000D01*
X159450000Y-70890000D02*
X158500000Y-70890000D01*
D38*
X157870000Y-104365000D02*
X157870000Y-103260000D01*
D40*
X161000000Y-70890000D02*
X159450000Y-70890000D01*
D38*
X152410000Y-89580000D02*
X154600000Y-89580000D01*
X154998250Y-100401750D02*
X154666500Y-100070000D01*
D40*
X165910000Y-70890000D02*
X167100000Y-70890000D01*
D38*
X154660000Y-100050000D02*
X154660000Y-89520000D01*
X157870000Y-103260000D02*
X157660000Y-103050000D01*
X152410000Y-87980000D02*
X154220000Y-87980000D01*
X157666500Y-102986500D02*
X155260000Y-100580000D01*
D40*
X195910000Y-70890000D02*
X199825000Y-74805000D01*
D38*
X157870000Y-106875000D02*
X158107500Y-106875000D01*
D40*
X199800000Y-74830000D02*
X199800000Y-79485000D01*
D38*
X154320000Y-89180000D02*
X154660000Y-89520000D01*
X162830000Y-104730000D02*
X159340000Y-104730000D01*
X155260000Y-100580000D02*
X155220000Y-100580000D01*
X152410000Y-88380000D02*
X154620000Y-88380000D01*
D40*
X165910000Y-70890000D02*
X161000000Y-70890000D01*
D38*
X154600000Y-89580000D02*
X154660000Y-89520000D01*
D40*
X199825000Y-74805000D02*
X199800000Y-74830000D01*
D39*
X182660000Y-93830000D02*
X182715000Y-93885000D01*
D38*
X157870000Y-104365000D02*
X157870000Y-106875000D01*
X154620000Y-88380000D02*
X154660000Y-88420000D01*
D40*
X167100000Y-70890000D02*
X195910000Y-70890000D01*
D38*
X154200000Y-89980000D02*
X154660000Y-89520000D01*
D39*
X156420000Y-100530000D02*
X155126500Y-100530000D01*
X180430000Y-93830000D02*
X182660000Y-93830000D01*
D38*
X152410000Y-89180000D02*
X154320000Y-89180000D01*
X152410000Y-88780000D02*
X154300000Y-88780000D01*
X165955000Y-70935000D02*
X165910000Y-70890000D01*
D40*
X154660000Y-74730000D02*
X154660000Y-88420000D01*
D38*
X154300000Y-88780000D02*
X154660000Y-88420000D01*
X154220000Y-87980000D02*
X154660000Y-88420000D01*
X177845000Y-94130000D02*
X179960000Y-94130000D01*
%TO.N,+3.3V*%
X148490000Y-88010000D02*
X148860000Y-88380000D01*
D39*
X159750000Y-79060000D02*
X157530000Y-81280000D01*
X147180000Y-84860000D02*
X147110000Y-84930000D01*
X159750000Y-78540000D02*
X159750000Y-79060000D01*
D38*
X163892500Y-75267500D02*
X163600000Y-75267500D01*
X148490000Y-88820000D02*
X148490000Y-89769022D01*
D39*
X162650000Y-78920000D02*
X163700000Y-78920000D01*
X157530000Y-81280000D02*
X157250000Y-81280000D01*
D41*
X176245000Y-73875000D02*
X173335000Y-73875000D01*
X168745000Y-73875000D02*
X168115000Y-73875000D01*
D39*
X147180000Y-83880000D02*
X147180000Y-84860000D01*
X159007500Y-77797500D02*
X159750000Y-78540000D01*
D38*
X147110000Y-86630000D02*
X148490000Y-88010000D01*
D39*
X147110000Y-84930000D02*
X147110000Y-85180000D01*
D38*
X148490000Y-88820000D02*
X148530000Y-88780000D01*
D41*
X192180000Y-76470000D02*
X193090000Y-76470000D01*
D38*
X148860000Y-88380000D02*
X149350000Y-88380000D01*
D39*
X162610000Y-78880000D02*
X162610000Y-78970000D01*
D38*
X148530000Y-88780000D02*
X149350000Y-88780000D01*
D41*
X166795000Y-73875000D02*
X166195000Y-73875000D01*
D39*
X162610000Y-78880000D02*
X162650000Y-78920000D01*
X159750000Y-78540000D02*
X160150000Y-78940000D01*
D41*
X193090000Y-78230000D02*
X193090000Y-76470000D01*
X166025000Y-73875000D02*
X165285000Y-73875000D01*
D38*
X148490000Y-88010000D02*
X148490000Y-88820000D01*
D41*
X176520000Y-79730000D02*
X176520000Y-74150000D01*
X193090000Y-76470000D02*
X196560000Y-76470000D01*
D38*
X165285000Y-73875000D02*
X163892500Y-75267500D01*
X147110000Y-85180000D02*
X147110000Y-86630000D01*
D39*
X162550000Y-78940000D02*
X162610000Y-78880000D01*
D41*
X178840000Y-76470000D02*
X192180000Y-76470000D01*
X173335000Y-73875000D02*
X166025000Y-73875000D01*
D38*
X148490000Y-89769022D02*
X148700978Y-89980000D01*
D41*
X176520000Y-74150000D02*
X178840000Y-76470000D01*
D39*
X162610000Y-78970000D02*
X165150000Y-81510000D01*
D41*
X192770000Y-78550000D02*
X193090000Y-78230000D01*
D39*
X165150000Y-81510000D02*
X165150000Y-86210000D01*
D41*
X173335000Y-73875000D02*
X168745000Y-73875000D01*
X176520000Y-74150000D02*
X176245000Y-73875000D01*
X168115000Y-73875000D02*
X166795000Y-73875000D01*
D39*
X163700000Y-78920000D02*
X168745000Y-73875000D01*
D38*
X148700978Y-89980000D02*
X149350000Y-89980000D01*
D39*
X160150000Y-78940000D02*
X162550000Y-78940000D01*
D41*
X196560000Y-76470000D02*
X197285000Y-77195000D01*
D38*
%TO.N,Net-(D1-Pad1)*%
X176302500Y-81522500D02*
X176520000Y-81305000D01*
X172480000Y-81522500D02*
X176302500Y-81522500D01*
%TO.N,Net-(D2-Pad1)*%
X157437500Y-77792500D02*
X157432500Y-77797500D01*
X157437500Y-75247500D02*
X157437500Y-77792500D01*
%TO.N,/CM4 GPIO/nRPIBOOT*%
X153095776Y-86780000D02*
X153406121Y-87090345D01*
D39*
X153406121Y-87090345D02*
X153290825Y-87090345D01*
X197260000Y-122665000D02*
X186015000Y-122665000D01*
X186015000Y-122665000D02*
X169680000Y-106330000D01*
D38*
X152430000Y-86780000D02*
X153095776Y-86780000D01*
%TO.N,/CM4 GPIO/GPIO8*%
X155930000Y-95980000D02*
X155837000Y-95980000D01*
X161169267Y-99650000D02*
X157499267Y-95980000D01*
X153490000Y-97169022D02*
X153490000Y-95880000D01*
X157499267Y-95980000D02*
X155930000Y-95980000D01*
X153079022Y-97580000D02*
X153490000Y-97169022D01*
X152430000Y-97580000D02*
X153079022Y-97580000D01*
X162830000Y-99650000D02*
X161169267Y-99650000D01*
X155837000Y-95980000D02*
X155767000Y-96050000D01*
%TO.N,/CM4 GPIO/GPIO11*%
X149330000Y-97980000D02*
X151260000Y-97980000D01*
X160779999Y-98380000D02*
X162830000Y-98380000D01*
X151260000Y-97980000D02*
X151270000Y-97990000D01*
X160731025Y-98428974D02*
X160779999Y-98380000D01*
%TO.N,/CM4 GPIO/GPIO9*%
X157572784Y-97720000D02*
X158233511Y-98380727D01*
X155900000Y-97720000D02*
X157572784Y-97720000D01*
X158233511Y-98473511D02*
X160680000Y-100920000D01*
X160680000Y-100920000D02*
X162830000Y-100920000D01*
X149330000Y-97580000D02*
X150716759Y-97580000D01*
X150716759Y-97580000D02*
X150923738Y-97373021D01*
X158233511Y-98380727D02*
X158233511Y-98473511D01*
%TO.N,/CM4 GPIO/GPIO10*%
X161246500Y-102190000D02*
X157686500Y-98630000D01*
X150697405Y-96702698D02*
X150620592Y-96779511D01*
X162830000Y-102190000D02*
X161246500Y-102190000D01*
X150620592Y-96779511D02*
X149440000Y-96779511D01*
%TO.N,/CM4 GPIO/GPIO2*%
X177960000Y-85340000D02*
X171170000Y-92130000D01*
X186520000Y-80250000D02*
X181430000Y-85340000D01*
X181430000Y-85340000D02*
X177960000Y-85340000D01*
X196495000Y-80250000D02*
X186520000Y-80250000D01*
X197260000Y-79485000D02*
X196495000Y-80250000D01*
X157730000Y-92130000D02*
X156680000Y-93180000D01*
X171170000Y-92130000D02*
X157730000Y-92130000D01*
X150570000Y-93980000D02*
X149350000Y-93980000D01*
X150680000Y-93870000D02*
X150570000Y-93980000D01*
%TO.N,Net-(U1-Pad4)*%
X173140000Y-104730000D02*
X182715000Y-95155000D01*
X172130000Y-104730000D02*
X173140000Y-104730000D01*
%TO.N,/CM4 High Speed/USB2_P*%
X119600000Y-104380000D02*
X118490000Y-104380000D01*
X113877216Y-132000000D02*
X114120727Y-132243511D01*
X121956200Y-130752986D02*
X121956200Y-106736200D01*
X111820000Y-132000000D02*
X113877216Y-132000000D01*
X120669186Y-132040000D02*
X121956200Y-130752986D01*
X116321489Y-132243511D02*
X116525000Y-132040000D01*
X121956200Y-106736200D02*
X119600000Y-104380000D01*
X114120727Y-132243511D02*
X116321489Y-132243511D01*
X116525000Y-132040000D02*
X120669186Y-132040000D01*
%TO.N,/CM4 High Speed/USB2_N*%
X121603800Y-130607014D02*
X121603800Y-107213800D01*
X116872600Y-131687600D02*
X120523214Y-131687600D01*
X119170000Y-104780000D02*
X118490000Y-104780000D01*
X113907216Y-131350000D02*
X114120727Y-131136489D01*
X120523214Y-131687600D02*
X121603800Y-130607014D01*
X116525000Y-131340000D02*
X116872600Y-131687600D01*
X121603800Y-107213800D02*
X119170000Y-104780000D01*
X114120727Y-131136489D02*
X116321489Y-131136489D01*
X116321489Y-131136489D02*
X116525000Y-131340000D01*
X111820000Y-131350000D02*
X113907216Y-131350000D01*
%TO.N,Net-(J4-Pad1)*%
X111820000Y-130700000D02*
X112895000Y-130700000D01*
X118820000Y-134110000D02*
X118820000Y-133550000D01*
X125255000Y-134100000D02*
X118830000Y-134100000D01*
X114755000Y-128840000D02*
X117000000Y-128840000D01*
X118830000Y-134100000D02*
X118820000Y-134110000D01*
X112895000Y-130700000D02*
X114755000Y-128840000D01*
%TO.N,/CM4 GPIO/EEPROM_nWP*%
X149999022Y-101580000D02*
X150500000Y-102080978D01*
X150500000Y-102080978D02*
X150500000Y-105110000D01*
X153579521Y-108279521D02*
X150490000Y-105190000D01*
X149350000Y-101580000D02*
X149999022Y-101580000D01*
X153589521Y-127619521D02*
X153589521Y-108209521D01*
X156140000Y-130170000D02*
X153589521Y-127619521D01*
X153589521Y-129220479D02*
X153589521Y-127619521D01*
X156140000Y-134050000D02*
X156140000Y-130170000D01*
X150490000Y-105190000D02*
X150490000Y-104880000D01*
X153310000Y-129500000D02*
X153589521Y-129220479D01*
%TO.N,/CM4 GPIO/nLED_Activity*%
X155280520Y-90829000D02*
X155659520Y-90450000D01*
X153420000Y-101160000D02*
X153079511Y-101160000D01*
X155213500Y-99590000D02*
X155213500Y-90829000D01*
X152430000Y-101180000D02*
X153059511Y-101180000D01*
X165282500Y-79697500D02*
X165150000Y-79830000D01*
X172480000Y-79697500D02*
X165282500Y-79697500D01*
X158663500Y-85836500D02*
X155659520Y-88840480D01*
X159200000Y-85836500D02*
X158663500Y-85836500D01*
X155659520Y-88840480D02*
X155659520Y-90450000D01*
X155213500Y-90829000D02*
X155280520Y-90829000D01*
X153059511Y-101180000D02*
X153079511Y-101160000D01*
%TO.N,+1.8V*%
X149350000Y-87580000D02*
X149350000Y-87980000D01*
%TO.N,/CM4 GPIO/nPWR_LED*%
X160610000Y-86860000D02*
X160540000Y-86930000D01*
X161700000Y-75917500D02*
X160902500Y-75917500D01*
X160902500Y-75917500D02*
X160730000Y-76090000D01*
X153496500Y-86380000D02*
X153506500Y-86390000D01*
X152430000Y-86380000D02*
X153496500Y-86380000D01*
X163250000Y-86860000D02*
X160610000Y-86860000D01*
%TO.N,/CM4 High Speed/USB_OTG_ID*%
X120980000Y-107200000D02*
X118960000Y-105180000D01*
X125590000Y-129590000D02*
X127000000Y-131000000D01*
X124540000Y-129590000D02*
X125590000Y-129590000D01*
X120980000Y-130370000D02*
X120980000Y-107200000D01*
X127000000Y-134000000D02*
X127000000Y-131000000D01*
X118960000Y-105180000D02*
X118490000Y-105180000D01*
%TO.N,/CM4 GPIO/GPIO3*%
X178814994Y-85950000D02*
X181940000Y-85950000D01*
X185865000Y-82025000D02*
X197260000Y-82025000D01*
X150433049Y-94380000D02*
X150628689Y-94575640D01*
X171774994Y-92990000D02*
X178814994Y-85950000D01*
X158000000Y-92990000D02*
X171774994Y-92990000D01*
X149350000Y-94380000D02*
X150433049Y-94380000D01*
X156840000Y-94150000D02*
X158000000Y-92990000D01*
X181940000Y-85950000D02*
X185865000Y-82025000D01*
%TO.N,unconnected-(J1-Pad11)*%
X197725000Y-89695000D02*
X197725000Y-89115000D01*
X197460000Y-89960000D02*
X197725000Y-89695000D01*
D39*
%TO.N,Net-(J1-Pad13)*%
X187665000Y-92615000D02*
X196830000Y-92615000D01*
X196830000Y-92615000D02*
X197260000Y-92185000D01*
%TO.N,Net-(J1-Pad15)*%
X196420000Y-93885000D02*
X197260000Y-94725000D01*
X187665000Y-93885000D02*
X196420000Y-93885000D01*
D38*
%TO.N,Net-(R1-Pad2)*%
X158070000Y-100530000D02*
X161000000Y-103460000D01*
X161000000Y-103460000D02*
X162830000Y-103460000D01*
%TO.N,Net-(R3-Pad2)*%
X163600000Y-77290000D02*
X162790000Y-78100000D01*
X163600000Y-76567500D02*
X163600000Y-77290000D01*
X162790000Y-78100000D02*
X161170000Y-78100000D01*
X161170000Y-78100000D02*
X159262500Y-76192500D01*
X159262500Y-76192500D02*
X159262500Y-75247500D01*
%TO.N,Net-(U1-Pad1)*%
X174470000Y-101510717D02*
X174470000Y-91790000D01*
X172520717Y-103460000D02*
X174470000Y-101510717D01*
X172130000Y-103460000D02*
X172520717Y-103460000D01*
X174915000Y-91345000D02*
X182715000Y-91345000D01*
X174470000Y-91790000D02*
X174915000Y-91345000D01*
%TD*%
M02*
