%TF.GenerationSoftware,KiCad,Pcbnew,(6.0.0)*%
%TF.CreationDate,2022-04-24T15:03:07-06:00*%
%TF.ProjectId,CDH,4344482e-6b69-4636-9164-5f7063625858,v01*%
%TF.SameCoordinates,Original*%
%TF.FileFunction,Legend,Top*%
%TF.FilePolarity,Positive*%
%FSLAX46Y46*%
G04 Gerber Fmt 4.6, Leading zero omitted, Abs format (unit mm)*
G04 Created by KiCad (PCBNEW (6.0.0)) date 2022-04-24 15:03:07*
%MOMM*%
%LPD*%
G01*
G04 APERTURE LIST*
%ADD10C,0.150000*%
%ADD11C,0.120000*%
%ADD12C,0.127000*%
G04 APERTURE END LIST*
D10*
X188539047Y-122545714D02*
X188539047Y-123212380D01*
X188539047Y-122640952D02*
X188586666Y-122593333D01*
X188681904Y-122545714D01*
X188824761Y-122545714D01*
X188920000Y-122593333D01*
X188967619Y-122688571D01*
X188967619Y-123212380D01*
X190015238Y-123212380D02*
X189681904Y-122736190D01*
X189443809Y-123212380D02*
X189443809Y-122212380D01*
X189824761Y-122212380D01*
X189920000Y-122260000D01*
X189967619Y-122307619D01*
X190015238Y-122402857D01*
X190015238Y-122545714D01*
X189967619Y-122640952D01*
X189920000Y-122688571D01*
X189824761Y-122736190D01*
X189443809Y-122736190D01*
X190443809Y-123212380D02*
X190443809Y-122212380D01*
X190824761Y-122212380D01*
X190920000Y-122260000D01*
X190967619Y-122307619D01*
X191015238Y-122402857D01*
X191015238Y-122545714D01*
X190967619Y-122640952D01*
X190920000Y-122688571D01*
X190824761Y-122736190D01*
X190443809Y-122736190D01*
X191443809Y-123212380D02*
X191443809Y-122212380D01*
X192253333Y-122688571D02*
X192396190Y-122736190D01*
X192443809Y-122783809D01*
X192491428Y-122879047D01*
X192491428Y-123021904D01*
X192443809Y-123117142D01*
X192396190Y-123164761D01*
X192300952Y-123212380D01*
X191920000Y-123212380D01*
X191920000Y-122212380D01*
X192253333Y-122212380D01*
X192348571Y-122260000D01*
X192396190Y-122307619D01*
X192443809Y-122402857D01*
X192443809Y-122498095D01*
X192396190Y-122593333D01*
X192348571Y-122640952D01*
X192253333Y-122688571D01*
X191920000Y-122688571D01*
X193110476Y-122212380D02*
X193300952Y-122212380D01*
X193396190Y-122260000D01*
X193491428Y-122355238D01*
X193539047Y-122545714D01*
X193539047Y-122879047D01*
X193491428Y-123069523D01*
X193396190Y-123164761D01*
X193300952Y-123212380D01*
X193110476Y-123212380D01*
X193015238Y-123164761D01*
X192920000Y-123069523D01*
X192872380Y-122879047D01*
X192872380Y-122545714D01*
X192920000Y-122355238D01*
X193015238Y-122260000D01*
X193110476Y-122212380D01*
X194158095Y-122212380D02*
X194348571Y-122212380D01*
X194443809Y-122260000D01*
X194539047Y-122355238D01*
X194586666Y-122545714D01*
X194586666Y-122879047D01*
X194539047Y-123069523D01*
X194443809Y-123164761D01*
X194348571Y-123212380D01*
X194158095Y-123212380D01*
X194062857Y-123164761D01*
X193967619Y-123069523D01*
X193920000Y-122879047D01*
X193920000Y-122545714D01*
X193967619Y-122355238D01*
X194062857Y-122260000D01*
X194158095Y-122212380D01*
X194872380Y-122212380D02*
X195443809Y-122212380D01*
X195158095Y-123212380D02*
X195158095Y-122212380D01*
%TO.C,U1*%
X181318095Y-89272380D02*
X181318095Y-90081904D01*
X181365714Y-90177142D01*
X181413333Y-90224761D01*
X181508571Y-90272380D01*
X181699047Y-90272380D01*
X181794285Y-90224761D01*
X181841904Y-90177142D01*
X181889523Y-90081904D01*
X181889523Y-89272380D01*
X182889523Y-90272380D02*
X182318095Y-90272380D01*
X182603809Y-90272380D02*
X182603809Y-89272380D01*
X182508571Y-89415238D01*
X182413333Y-89510476D01*
X182318095Y-89558095D01*
%TO.C,R7*%
X125920833Y-135952380D02*
X125587500Y-135476190D01*
X125349404Y-135952380D02*
X125349404Y-134952380D01*
X125730357Y-134952380D01*
X125825595Y-135000000D01*
X125873214Y-135047619D01*
X125920833Y-135142857D01*
X125920833Y-135285714D01*
X125873214Y-135380952D01*
X125825595Y-135428571D01*
X125730357Y-135476190D01*
X125349404Y-135476190D01*
X126254166Y-134952380D02*
X126920833Y-134952380D01*
X126492261Y-135952380D01*
%TO.C,Camera1*%
X134833809Y-135657142D02*
X134786190Y-135704761D01*
X134643333Y-135752380D01*
X134548095Y-135752380D01*
X134405238Y-135704761D01*
X134310000Y-135609523D01*
X134262380Y-135514285D01*
X134214761Y-135323809D01*
X134214761Y-135180952D01*
X134262380Y-134990476D01*
X134310000Y-134895238D01*
X134405238Y-134800000D01*
X134548095Y-134752380D01*
X134643333Y-134752380D01*
X134786190Y-134800000D01*
X134833809Y-134847619D01*
X135690952Y-135752380D02*
X135690952Y-135228571D01*
X135643333Y-135133333D01*
X135548095Y-135085714D01*
X135357619Y-135085714D01*
X135262380Y-135133333D01*
X135690952Y-135704761D02*
X135595714Y-135752380D01*
X135357619Y-135752380D01*
X135262380Y-135704761D01*
X135214761Y-135609523D01*
X135214761Y-135514285D01*
X135262380Y-135419047D01*
X135357619Y-135371428D01*
X135595714Y-135371428D01*
X135690952Y-135323809D01*
X136167142Y-135752380D02*
X136167142Y-135085714D01*
X136167142Y-135180952D02*
X136214761Y-135133333D01*
X136310000Y-135085714D01*
X136452857Y-135085714D01*
X136548095Y-135133333D01*
X136595714Y-135228571D01*
X136595714Y-135752380D01*
X136595714Y-135228571D02*
X136643333Y-135133333D01*
X136738571Y-135085714D01*
X136881428Y-135085714D01*
X136976666Y-135133333D01*
X137024285Y-135228571D01*
X137024285Y-135752380D01*
X137881428Y-135704761D02*
X137786190Y-135752380D01*
X137595714Y-135752380D01*
X137500476Y-135704761D01*
X137452857Y-135609523D01*
X137452857Y-135228571D01*
X137500476Y-135133333D01*
X137595714Y-135085714D01*
X137786190Y-135085714D01*
X137881428Y-135133333D01*
X137929047Y-135228571D01*
X137929047Y-135323809D01*
X137452857Y-135419047D01*
X138357619Y-135752380D02*
X138357619Y-135085714D01*
X138357619Y-135276190D02*
X138405238Y-135180952D01*
X138452857Y-135133333D01*
X138548095Y-135085714D01*
X138643333Y-135085714D01*
X139405238Y-135752380D02*
X139405238Y-135228571D01*
X139357619Y-135133333D01*
X139262380Y-135085714D01*
X139071904Y-135085714D01*
X138976666Y-135133333D01*
X139405238Y-135704761D02*
X139310000Y-135752380D01*
X139071904Y-135752380D01*
X138976666Y-135704761D01*
X138929047Y-135609523D01*
X138929047Y-135514285D01*
X138976666Y-135419047D01*
X139071904Y-135371428D01*
X139310000Y-135371428D01*
X139405238Y-135323809D01*
X140405238Y-135752380D02*
X139833809Y-135752380D01*
X140119523Y-135752380D02*
X140119523Y-134752380D01*
X140024285Y-134895238D01*
X139929047Y-134990476D01*
X139833809Y-135038095D01*
%TO.C,R2*%
X180942380Y-63006666D02*
X180466190Y-63340000D01*
X180942380Y-63578095D02*
X179942380Y-63578095D01*
X179942380Y-63197142D01*
X179990000Y-63101904D01*
X180037619Y-63054285D01*
X180132857Y-63006666D01*
X180275714Y-63006666D01*
X180370952Y-63054285D01*
X180418571Y-63101904D01*
X180466190Y-63197142D01*
X180466190Y-63578095D01*
X180037619Y-62625714D02*
X179990000Y-62578095D01*
X179942380Y-62482857D01*
X179942380Y-62244761D01*
X179990000Y-62149523D01*
X180037619Y-62101904D01*
X180132857Y-62054285D01*
X180228095Y-62054285D01*
X180370952Y-62101904D01*
X180942380Y-62673333D01*
X180942380Y-62054285D01*
%TO.C,R3*%
X170492380Y-62546666D02*
X170016190Y-62880000D01*
X170492380Y-63118095D02*
X169492380Y-63118095D01*
X169492380Y-62737142D01*
X169540000Y-62641904D01*
X169587619Y-62594285D01*
X169682857Y-62546666D01*
X169825714Y-62546666D01*
X169920952Y-62594285D01*
X169968571Y-62641904D01*
X170016190Y-62737142D01*
X170016190Y-63118095D01*
X169492380Y-62213333D02*
X169492380Y-61594285D01*
X169873333Y-61927619D01*
X169873333Y-61784761D01*
X169920952Y-61689523D01*
X169968571Y-61641904D01*
X170063809Y-61594285D01*
X170301904Y-61594285D01*
X170397142Y-61641904D01*
X170444761Y-61689523D01*
X170492380Y-61784761D01*
X170492380Y-62070476D01*
X170444761Y-62165714D01*
X170397142Y-62213333D01*
%TO.C,H4*%
X109878095Y-138302380D02*
X109878095Y-137302380D01*
X109878095Y-137778571D02*
X110449523Y-137778571D01*
X110449523Y-138302380D02*
X110449523Y-137302380D01*
X111354285Y-137635714D02*
X111354285Y-138302380D01*
X111116190Y-137254761D02*
X110878095Y-137969047D01*
X111497142Y-137969047D01*
%TO.C,JP1*%
X188146666Y-101602380D02*
X188146666Y-102316666D01*
X188099047Y-102459523D01*
X188003809Y-102554761D01*
X187860952Y-102602380D01*
X187765714Y-102602380D01*
X188622857Y-102602380D02*
X188622857Y-101602380D01*
X189003809Y-101602380D01*
X189099047Y-101650000D01*
X189146666Y-101697619D01*
X189194285Y-101792857D01*
X189194285Y-101935714D01*
X189146666Y-102030952D01*
X189099047Y-102078571D01*
X189003809Y-102126190D01*
X188622857Y-102126190D01*
X190146666Y-102602380D02*
X189575238Y-102602380D01*
X189860952Y-102602380D02*
X189860952Y-101602380D01*
X189765714Y-101745238D01*
X189670476Y-101840476D01*
X189575238Y-101888095D01*
%TO.C,R8*%
X125920833Y-132882380D02*
X125587500Y-132406190D01*
X125349404Y-132882380D02*
X125349404Y-131882380D01*
X125730357Y-131882380D01*
X125825595Y-131930000D01*
X125873214Y-131977619D01*
X125920833Y-132072857D01*
X125920833Y-132215714D01*
X125873214Y-132310952D01*
X125825595Y-132358571D01*
X125730357Y-132406190D01*
X125349404Y-132406190D01*
X126492261Y-132310952D02*
X126397023Y-132263333D01*
X126349404Y-132215714D01*
X126301785Y-132120476D01*
X126301785Y-132072857D01*
X126349404Y-131977619D01*
X126397023Y-131930000D01*
X126492261Y-131882380D01*
X126682738Y-131882380D01*
X126777976Y-131930000D01*
X126825595Y-131977619D01*
X126873214Y-132072857D01*
X126873214Y-132120476D01*
X126825595Y-132215714D01*
X126777976Y-132263333D01*
X126682738Y-132310952D01*
X126492261Y-132310952D01*
X126397023Y-132358571D01*
X126349404Y-132406190D01*
X126301785Y-132501428D01*
X126301785Y-132691904D01*
X126349404Y-132787142D01*
X126397023Y-132834761D01*
X126492261Y-132882380D01*
X126682738Y-132882380D01*
X126777976Y-132834761D01*
X126825595Y-132787142D01*
X126873214Y-132691904D01*
X126873214Y-132501428D01*
X126825595Y-132406190D01*
X126777976Y-132358571D01*
X126682738Y-132310952D01*
%TO.C,C4*%
X190863333Y-92077142D02*
X190815714Y-92124761D01*
X190672857Y-92172380D01*
X190577619Y-92172380D01*
X190434761Y-92124761D01*
X190339523Y-92029523D01*
X190291904Y-91934285D01*
X190244285Y-91743809D01*
X190244285Y-91600952D01*
X190291904Y-91410476D01*
X190339523Y-91315238D01*
X190434761Y-91220000D01*
X190577619Y-91172380D01*
X190672857Y-91172380D01*
X190815714Y-91220000D01*
X190863333Y-91267619D01*
X191720476Y-91505714D02*
X191720476Y-92172380D01*
X191482380Y-91124761D02*
X191244285Y-91839047D01*
X191863333Y-91839047D01*
%TO.C,H2*%
X195078095Y-61152380D02*
X195078095Y-60152380D01*
X195078095Y-60628571D02*
X195649523Y-60628571D01*
X195649523Y-61152380D02*
X195649523Y-60152380D01*
X196078095Y-60247619D02*
X196125714Y-60200000D01*
X196220952Y-60152380D01*
X196459047Y-60152380D01*
X196554285Y-60200000D01*
X196601904Y-60247619D01*
X196649523Y-60342857D01*
X196649523Y-60438095D01*
X196601904Y-60580952D01*
X196030476Y-61152380D01*
X196649523Y-61152380D01*
%TO.C,H1*%
X115498095Y-61042380D02*
X115498095Y-60042380D01*
X115498095Y-60518571D02*
X116069523Y-60518571D01*
X116069523Y-61042380D02*
X116069523Y-60042380D01*
X117069523Y-61042380D02*
X116498095Y-61042380D01*
X116783809Y-61042380D02*
X116783809Y-60042380D01*
X116688571Y-60185238D01*
X116593333Y-60280476D01*
X116498095Y-60328095D01*
%TO.C,D1*%
X177722380Y-63438095D02*
X176722380Y-63438095D01*
X176722380Y-63200000D01*
X176770000Y-63057142D01*
X176865238Y-62961904D01*
X176960476Y-62914285D01*
X177150952Y-62866666D01*
X177293809Y-62866666D01*
X177484285Y-62914285D01*
X177579523Y-62961904D01*
X177674761Y-63057142D01*
X177722380Y-63200000D01*
X177722380Y-63438095D01*
X177722380Y-61914285D02*
X177722380Y-62485714D01*
X177722380Y-62200000D02*
X176722380Y-62200000D01*
X176865238Y-62295238D01*
X176960476Y-62390476D01*
X177008095Y-62485714D01*
%TO.C,P1*%
X119375567Y-66717359D02*
X118373685Y-66717359D01*
X118373685Y-66335690D01*
X118421394Y-66240272D01*
X118469102Y-66192564D01*
X118564520Y-66144855D01*
X118707646Y-66144855D01*
X118803063Y-66192564D01*
X118850772Y-66240272D01*
X118898480Y-66335690D01*
X118898480Y-66717359D01*
X119375567Y-65190682D02*
X119375567Y-65763186D01*
X119375567Y-65476934D02*
X118373685Y-65476934D01*
X118516811Y-65572351D01*
X118612228Y-65667768D01*
X118659937Y-65763186D01*
%TO.C,JP2*%
X188746666Y-87182380D02*
X188746666Y-87896666D01*
X188699047Y-88039523D01*
X188603809Y-88134761D01*
X188460952Y-88182380D01*
X188365714Y-88182380D01*
X189222857Y-88182380D02*
X189222857Y-87182380D01*
X189603809Y-87182380D01*
X189699047Y-87230000D01*
X189746666Y-87277619D01*
X189794285Y-87372857D01*
X189794285Y-87515714D01*
X189746666Y-87610952D01*
X189699047Y-87658571D01*
X189603809Y-87706190D01*
X189222857Y-87706190D01*
X190175238Y-87277619D02*
X190222857Y-87230000D01*
X190318095Y-87182380D01*
X190556190Y-87182380D01*
X190651428Y-87230000D01*
X190699047Y-87277619D01*
X190746666Y-87372857D01*
X190746666Y-87468095D01*
X190699047Y-87610952D01*
X190127619Y-88182380D01*
X190746666Y-88182380D01*
%TO.C,H3*%
X189578095Y-138302380D02*
X189578095Y-137302380D01*
X189578095Y-137778571D02*
X190149523Y-137778571D01*
X190149523Y-138302380D02*
X190149523Y-137302380D01*
X190530476Y-137302380D02*
X191149523Y-137302380D01*
X190816190Y-137683333D01*
X190959047Y-137683333D01*
X191054285Y-137730952D01*
X191101904Y-137778571D01*
X191149523Y-137873809D01*
X191149523Y-138111904D01*
X191101904Y-138207142D01*
X191054285Y-138254761D01*
X190959047Y-138302380D01*
X190673333Y-138302380D01*
X190578095Y-138254761D01*
X190530476Y-138207142D01*
%TO.C,U4*%
X171908095Y-64712380D02*
X171908095Y-65521904D01*
X171955714Y-65617142D01*
X172003333Y-65664761D01*
X172098571Y-65712380D01*
X172289047Y-65712380D01*
X172384285Y-65664761D01*
X172431904Y-65617142D01*
X172479523Y-65521904D01*
X172479523Y-64712380D01*
X173384285Y-65045714D02*
X173384285Y-65712380D01*
X173146190Y-64664761D02*
X172908095Y-65379047D01*
X173527142Y-65379047D01*
%TO.C,D2*%
X164872380Y-62228095D02*
X163872380Y-62228095D01*
X163872380Y-61990000D01*
X163920000Y-61847142D01*
X164015238Y-61751904D01*
X164110476Y-61704285D01*
X164300952Y-61656666D01*
X164443809Y-61656666D01*
X164634285Y-61704285D01*
X164729523Y-61751904D01*
X164824761Y-61847142D01*
X164872380Y-61990000D01*
X164872380Y-62228095D01*
X163967619Y-61275714D02*
X163920000Y-61228095D01*
X163872380Y-61132857D01*
X163872380Y-60894761D01*
X163920000Y-60799523D01*
X163967619Y-60751904D01*
X164062857Y-60704285D01*
X164158095Y-60704285D01*
X164300952Y-60751904D01*
X164872380Y-61323333D01*
X164872380Y-60704285D01*
%TO.C,C2*%
X156988333Y-108677142D02*
X156940714Y-108724761D01*
X156797857Y-108772380D01*
X156702619Y-108772380D01*
X156559761Y-108724761D01*
X156464523Y-108629523D01*
X156416904Y-108534285D01*
X156369285Y-108343809D01*
X156369285Y-108200952D01*
X156416904Y-108010476D01*
X156464523Y-107915238D01*
X156559761Y-107820000D01*
X156702619Y-107772380D01*
X156797857Y-107772380D01*
X156940714Y-107820000D01*
X156988333Y-107867619D01*
X157369285Y-107867619D02*
X157416904Y-107820000D01*
X157512142Y-107772380D01*
X157750238Y-107772380D01*
X157845476Y-107820000D01*
X157893095Y-107867619D01*
X157940714Y-107962857D01*
X157940714Y-108058095D01*
X157893095Y-108200952D01*
X157321666Y-108772380D01*
X157940714Y-108772380D01*
%TO.C,C3*%
X175047142Y-93376666D02*
X175094761Y-93424285D01*
X175142380Y-93567142D01*
X175142380Y-93662380D01*
X175094761Y-93805238D01*
X174999523Y-93900476D01*
X174904285Y-93948095D01*
X174713809Y-93995714D01*
X174570952Y-93995714D01*
X174380476Y-93948095D01*
X174285238Y-93900476D01*
X174190000Y-93805238D01*
X174142380Y-93662380D01*
X174142380Y-93567142D01*
X174190000Y-93424285D01*
X174237619Y-93376666D01*
X174142380Y-93043333D02*
X174142380Y-92424285D01*
X174523333Y-92757619D01*
X174523333Y-92614761D01*
X174570952Y-92519523D01*
X174618571Y-92471904D01*
X174713809Y-92424285D01*
X174951904Y-92424285D01*
X175047142Y-92471904D01*
X175094761Y-92519523D01*
X175142380Y-92614761D01*
X175142380Y-92900476D01*
X175094761Y-92995714D01*
X175047142Y-93043333D01*
%TO.C,U3*%
X166718095Y-105822380D02*
X166718095Y-106631904D01*
X166765714Y-106727142D01*
X166813333Y-106774761D01*
X166908571Y-106822380D01*
X167099047Y-106822380D01*
X167194285Y-106774761D01*
X167241904Y-106727142D01*
X167289523Y-106631904D01*
X167289523Y-105822380D01*
X167670476Y-105822380D02*
X168289523Y-105822380D01*
X167956190Y-106203333D01*
X168099047Y-106203333D01*
X168194285Y-106250952D01*
X168241904Y-106298571D01*
X168289523Y-106393809D01*
X168289523Y-106631904D01*
X168241904Y-106727142D01*
X168194285Y-106774761D01*
X168099047Y-106822380D01*
X167813333Y-106822380D01*
X167718095Y-106774761D01*
X167670476Y-106727142D01*
%TO.C,J4*%
X113662380Y-136073333D02*
X114376666Y-136073333D01*
X114519523Y-136120952D01*
X114614761Y-136216190D01*
X114662380Y-136359047D01*
X114662380Y-136454285D01*
X113995714Y-135168571D02*
X114662380Y-135168571D01*
X113614761Y-135406666D02*
X114329047Y-135644761D01*
X114329047Y-135025714D01*
%TO.C,Display1*%
X153321428Y-135732380D02*
X153321428Y-134732380D01*
X153559523Y-134732380D01*
X153702380Y-134780000D01*
X153797619Y-134875238D01*
X153845238Y-134970476D01*
X153892857Y-135160952D01*
X153892857Y-135303809D01*
X153845238Y-135494285D01*
X153797619Y-135589523D01*
X153702380Y-135684761D01*
X153559523Y-135732380D01*
X153321428Y-135732380D01*
X154321428Y-135732380D02*
X154321428Y-135065714D01*
X154321428Y-134732380D02*
X154273809Y-134780000D01*
X154321428Y-134827619D01*
X154369047Y-134780000D01*
X154321428Y-134732380D01*
X154321428Y-134827619D01*
X154750000Y-135684761D02*
X154845238Y-135732380D01*
X155035714Y-135732380D01*
X155130952Y-135684761D01*
X155178571Y-135589523D01*
X155178571Y-135541904D01*
X155130952Y-135446666D01*
X155035714Y-135399047D01*
X154892857Y-135399047D01*
X154797619Y-135351428D01*
X154750000Y-135256190D01*
X154750000Y-135208571D01*
X154797619Y-135113333D01*
X154892857Y-135065714D01*
X155035714Y-135065714D01*
X155130952Y-135113333D01*
X155607142Y-135065714D02*
X155607142Y-136065714D01*
X155607142Y-135113333D02*
X155702380Y-135065714D01*
X155892857Y-135065714D01*
X155988095Y-135113333D01*
X156035714Y-135160952D01*
X156083333Y-135256190D01*
X156083333Y-135541904D01*
X156035714Y-135637142D01*
X155988095Y-135684761D01*
X155892857Y-135732380D01*
X155702380Y-135732380D01*
X155607142Y-135684761D01*
X156654761Y-135732380D02*
X156559523Y-135684761D01*
X156511904Y-135589523D01*
X156511904Y-134732380D01*
X157464285Y-135732380D02*
X157464285Y-135208571D01*
X157416666Y-135113333D01*
X157321428Y-135065714D01*
X157130952Y-135065714D01*
X157035714Y-135113333D01*
X157464285Y-135684761D02*
X157369047Y-135732380D01*
X157130952Y-135732380D01*
X157035714Y-135684761D01*
X156988095Y-135589523D01*
X156988095Y-135494285D01*
X157035714Y-135399047D01*
X157130952Y-135351428D01*
X157369047Y-135351428D01*
X157464285Y-135303809D01*
X157845238Y-135065714D02*
X158083333Y-135732380D01*
X158321428Y-135065714D02*
X158083333Y-135732380D01*
X157988095Y-135970476D01*
X157940476Y-136018095D01*
X157845238Y-136065714D01*
X159226190Y-135732380D02*
X158654761Y-135732380D01*
X158940476Y-135732380D02*
X158940476Y-134732380D01*
X158845238Y-134875238D01*
X158750000Y-134970476D01*
X158654761Y-135018095D01*
%TO.C,C1*%
X156943333Y-103147142D02*
X156895714Y-103194761D01*
X156752857Y-103242380D01*
X156657619Y-103242380D01*
X156514761Y-103194761D01*
X156419523Y-103099523D01*
X156371904Y-103004285D01*
X156324285Y-102813809D01*
X156324285Y-102670952D01*
X156371904Y-102480476D01*
X156419523Y-102385238D01*
X156514761Y-102290000D01*
X156657619Y-102242380D01*
X156752857Y-102242380D01*
X156895714Y-102290000D01*
X156943333Y-102337619D01*
X157895714Y-103242380D02*
X157324285Y-103242380D01*
X157610000Y-103242380D02*
X157610000Y-102242380D01*
X157514761Y-102385238D01*
X157419523Y-102480476D01*
X157324285Y-102528095D01*
%TO.C,U2*%
X115338095Y-129442380D02*
X115338095Y-130251904D01*
X115385714Y-130347142D01*
X115433333Y-130394761D01*
X115528571Y-130442380D01*
X115719047Y-130442380D01*
X115814285Y-130394761D01*
X115861904Y-130347142D01*
X115909523Y-130251904D01*
X115909523Y-129442380D01*
X116338095Y-129537619D02*
X116385714Y-129490000D01*
X116480952Y-129442380D01*
X116719047Y-129442380D01*
X116814285Y-129490000D01*
X116861904Y-129537619D01*
X116909523Y-129632857D01*
X116909523Y-129728095D01*
X116861904Y-129870952D01*
X116290476Y-130442380D01*
X116909523Y-130442380D01*
%TO.C,R10*%
X188497142Y-90082380D02*
X188163809Y-89606190D01*
X187925714Y-90082380D02*
X187925714Y-89082380D01*
X188306666Y-89082380D01*
X188401904Y-89130000D01*
X188449523Y-89177619D01*
X188497142Y-89272857D01*
X188497142Y-89415714D01*
X188449523Y-89510952D01*
X188401904Y-89558571D01*
X188306666Y-89606190D01*
X187925714Y-89606190D01*
X189449523Y-90082380D02*
X188878095Y-90082380D01*
X189163809Y-90082380D02*
X189163809Y-89082380D01*
X189068571Y-89225238D01*
X188973333Y-89320476D01*
X188878095Y-89368095D01*
X190068571Y-89082380D02*
X190163809Y-89082380D01*
X190259047Y-89130000D01*
X190306666Y-89177619D01*
X190354285Y-89272857D01*
X190401904Y-89463333D01*
X190401904Y-89701428D01*
X190354285Y-89891904D01*
X190306666Y-89987142D01*
X190259047Y-90034761D01*
X190163809Y-90082380D01*
X190068571Y-90082380D01*
X189973333Y-90034761D01*
X189925714Y-89987142D01*
X189878095Y-89891904D01*
X189830476Y-89701428D01*
X189830476Y-89463333D01*
X189878095Y-89272857D01*
X189925714Y-89177619D01*
X189973333Y-89130000D01*
X190068571Y-89082380D01*
%TO.C,P2*%
X146765567Y-66597359D02*
X145763685Y-66597359D01*
X145763685Y-66215690D01*
X145811394Y-66120272D01*
X145859102Y-66072564D01*
X145954520Y-66024855D01*
X146097646Y-66024855D01*
X146193063Y-66072564D01*
X146240772Y-66120272D01*
X146288480Y-66215690D01*
X146288480Y-66597359D01*
X145859102Y-65643186D02*
X145811394Y-65595477D01*
X145763685Y-65500060D01*
X145763685Y-65261516D01*
X145811394Y-65166099D01*
X145859102Y-65118390D01*
X145954520Y-65070682D01*
X146049937Y-65070682D01*
X146193063Y-65118390D01*
X146765567Y-65690894D01*
X146765567Y-65070682D01*
%TO.C,R1*%
X157078333Y-99552380D02*
X156745000Y-99076190D01*
X156506904Y-99552380D02*
X156506904Y-98552380D01*
X156887857Y-98552380D01*
X156983095Y-98600000D01*
X157030714Y-98647619D01*
X157078333Y-98742857D01*
X157078333Y-98885714D01*
X157030714Y-98980952D01*
X156983095Y-99028571D01*
X156887857Y-99076190D01*
X156506904Y-99076190D01*
X158030714Y-99552380D02*
X157459285Y-99552380D01*
X157745000Y-99552380D02*
X157745000Y-98552380D01*
X157649761Y-98695238D01*
X157554523Y-98790476D01*
X157459285Y-98838095D01*
%TO.C,J1*%
X198196666Y-74067380D02*
X198196666Y-74781666D01*
X198149047Y-74924523D01*
X198053809Y-75019761D01*
X197910952Y-75067380D01*
X197815714Y-75067380D01*
X199196666Y-75067380D02*
X198625238Y-75067380D01*
X198910952Y-75067380D02*
X198910952Y-74067380D01*
X198815714Y-74210238D01*
X198720476Y-74305476D01*
X198625238Y-74353095D01*
%TO.C,R9*%
X188313333Y-97152380D02*
X187980000Y-96676190D01*
X187741904Y-97152380D02*
X187741904Y-96152380D01*
X188122857Y-96152380D01*
X188218095Y-96200000D01*
X188265714Y-96247619D01*
X188313333Y-96342857D01*
X188313333Y-96485714D01*
X188265714Y-96580952D01*
X188218095Y-96628571D01*
X188122857Y-96676190D01*
X187741904Y-96676190D01*
X188789523Y-97152380D02*
X188980000Y-97152380D01*
X189075238Y-97104761D01*
X189122857Y-97057142D01*
X189218095Y-96914285D01*
X189265714Y-96723809D01*
X189265714Y-96342857D01*
X189218095Y-96247619D01*
X189170476Y-96200000D01*
X189075238Y-96152380D01*
X188884761Y-96152380D01*
X188789523Y-96200000D01*
X188741904Y-96247619D01*
X188694285Y-96342857D01*
X188694285Y-96580952D01*
X188741904Y-96676190D01*
X188789523Y-96723809D01*
X188884761Y-96771428D01*
X189075238Y-96771428D01*
X189170476Y-96723809D01*
X189218095Y-96676190D01*
X189265714Y-96580952D01*
D11*
%TO.C,U1*%
X182080000Y-90660000D02*
X184030000Y-90660000D01*
X182080000Y-95780000D02*
X180130000Y-95780000D01*
X182080000Y-95780000D02*
X184030000Y-95780000D01*
X182080000Y-90660000D02*
X178630000Y-90660000D01*
%TO.C,R7*%
X125832776Y-134522500D02*
X126342224Y-134522500D01*
X125832776Y-133477500D02*
X126342224Y-133477500D01*
%TO.C,Camera1*%
X130160000Y-137700000D02*
X130160000Y-139040000D01*
X144460000Y-143500000D02*
X144460000Y-141760000D01*
X130160000Y-141760000D02*
X130160000Y-143500000D01*
X144460000Y-137700000D02*
X144460000Y-139040000D01*
X131650000Y-137700000D02*
X130160000Y-137700000D01*
X130160000Y-143500000D02*
X144460000Y-143500000D01*
X131650000Y-137700000D02*
X131650000Y-136500000D01*
X142970000Y-137700000D02*
X144460000Y-137700000D01*
%TO.C,R2*%
X178537500Y-62585276D02*
X178537500Y-63094724D01*
X179582500Y-62585276D02*
X179582500Y-63094724D01*
%TO.C,R3*%
X168087500Y-62125276D02*
X168087500Y-62634724D01*
X169132500Y-62125276D02*
X169132500Y-62634724D01*
%TO.C,JP1*%
X190140000Y-98782500D02*
X189840000Y-98482500D01*
X190340000Y-100982500D02*
X187540000Y-100982500D01*
X190140000Y-98782500D02*
X190440000Y-98482500D01*
X190440000Y-98482500D02*
X189840000Y-98482500D01*
X186890000Y-100282500D02*
X186890000Y-99682500D01*
X187540000Y-98982500D02*
X190340000Y-98982500D01*
X190990000Y-99682500D02*
X190990000Y-100282500D01*
X187590000Y-98982500D02*
G75*
G03*
X186890000Y-99682500I-1J-699999D01*
G01*
X190990000Y-99682500D02*
G75*
G03*
X190290000Y-98982500I-699999J1D01*
G01*
X186890000Y-100282500D02*
G75*
G03*
X187590000Y-100982500I699999J-1D01*
G01*
X190290000Y-100982500D02*
G75*
G03*
X190990000Y-100282500I1J699999D01*
G01*
%TO.C,R8*%
X126342224Y-131522500D02*
X125832776Y-131522500D01*
X126342224Y-130477500D02*
X125832776Y-130477500D01*
%TO.C,C4*%
X190244420Y-93660000D02*
X190525580Y-93660000D01*
X190244420Y-92640000D02*
X190525580Y-92640000D01*
%TO.C,D1*%
X176575000Y-63500000D02*
X176575000Y-61215000D01*
X176575000Y-61215000D02*
X175105000Y-61215000D01*
X175105000Y-61215000D02*
X175105000Y-63500000D01*
D12*
%TO.C,P1*%
X131825000Y-69450000D02*
X120125000Y-69450000D01*
X120125000Y-59450000D02*
X131825000Y-59450000D01*
X120125000Y-69450000D02*
X120125000Y-59450000D01*
X131825000Y-59450000D02*
X131825000Y-69450000D01*
D11*
%TO.C,JP2*%
X186877500Y-85860000D02*
X186877500Y-85260000D01*
X190427500Y-84060000D02*
X189827500Y-84060000D01*
X190127500Y-84360000D02*
X189827500Y-84060000D01*
X187527500Y-84560000D02*
X190327500Y-84560000D01*
X190327500Y-86560000D02*
X187527500Y-86560000D01*
X190977500Y-85260000D02*
X190977500Y-85860000D01*
X190127500Y-84360000D02*
X190427500Y-84060000D01*
X190977500Y-85260000D02*
G75*
G03*
X190277500Y-84560000I-699999J1D01*
G01*
X187577500Y-84560000D02*
G75*
G03*
X186877500Y-85260000I-1J-699999D01*
G01*
X186877500Y-85860000D02*
G75*
G03*
X187577500Y-86560000I699999J-1D01*
G01*
X190277500Y-86560000D02*
G75*
G03*
X190977500Y-85860000I1J699999D01*
G01*
%TO.C,U4*%
X173370000Y-66100000D02*
X171470000Y-66100000D01*
X171970000Y-68420000D02*
X173370000Y-68420000D01*
%TO.C,D2*%
X165227500Y-60845000D02*
X165227500Y-63130000D01*
X166697500Y-60845000D02*
X165227500Y-60845000D01*
X166697500Y-63130000D02*
X166697500Y-60845000D01*
%TO.C,C2*%
X157295580Y-107400000D02*
X157014420Y-107400000D01*
X157295580Y-106380000D02*
X157014420Y-106380000D01*
%TO.C,C3*%
X176630000Y-93350580D02*
X176630000Y-93069420D01*
X175610000Y-93350580D02*
X175610000Y-93069420D01*
%TO.C,U3*%
X167480000Y-93765000D02*
X171340000Y-93765000D01*
X171340000Y-93765000D02*
X171340000Y-94010000D01*
X171340000Y-105290000D02*
X173155000Y-105290000D01*
X167480000Y-93765000D02*
X163620000Y-93765000D01*
X163620000Y-105535000D02*
X163620000Y-105290000D01*
X167480000Y-105535000D02*
X163620000Y-105535000D01*
X167480000Y-105535000D02*
X171340000Y-105535000D01*
X163620000Y-93765000D02*
X163620000Y-94010000D01*
X171340000Y-105535000D02*
X171340000Y-105290000D01*
%TO.C,J4*%
X107380000Y-128150000D02*
X110180000Y-128150000D01*
X113430000Y-130300000D02*
X113430000Y-131100000D01*
X110180000Y-127850000D02*
X111730000Y-127850000D01*
X107380000Y-135850000D02*
X110180000Y-135850000D01*
X110180000Y-136150000D02*
X111730000Y-136150000D01*
X110180000Y-135850000D02*
X110180000Y-136150000D01*
X113430000Y-131100000D02*
X112980000Y-130700000D01*
X112980000Y-130700000D02*
X113430000Y-130300000D01*
X110180000Y-127850000D02*
X110180000Y-128150000D01*
%TO.C,Display1*%
X150590000Y-137680000D02*
X149100000Y-137680000D01*
X163400000Y-143480000D02*
X163400000Y-141740000D01*
X161910000Y-137680000D02*
X163400000Y-137680000D01*
X149100000Y-137680000D02*
X149100000Y-139020000D01*
X149100000Y-143480000D02*
X163400000Y-143480000D01*
X149100000Y-141740000D02*
X149100000Y-143480000D01*
X150590000Y-137680000D02*
X150590000Y-136480000D01*
X163400000Y-137680000D02*
X163400000Y-139020000D01*
%TO.C,C1*%
X157235580Y-103855000D02*
X156954420Y-103855000D01*
X157235580Y-104875000D02*
X156954420Y-104875000D01*
%TO.C,U2*%
X115550000Y-132340000D02*
X115550000Y-132140000D01*
X116100000Y-131040000D02*
X115550000Y-131040000D01*
X116100000Y-132340000D02*
X115550000Y-132340000D01*
X115550000Y-131040000D02*
X115550000Y-131240000D01*
%TO.C,R10*%
X188242742Y-90497500D02*
X188717258Y-90497500D01*
X188242742Y-91542500D02*
X188717258Y-91542500D01*
%TO.C,Module1*%
X118860000Y-106780000D02*
X118860000Y-105780000D01*
X115080000Y-83980000D02*
X115080000Y-84980000D01*
X149000000Y-83980000D02*
X149000000Y-84980000D01*
X152780000Y-83980000D02*
X152780000Y-84980000D01*
X153930000Y-121880000D02*
X153930000Y-73880000D01*
X118860000Y-106780000D02*
X115080000Y-106780000D01*
X152780000Y-106780000D02*
X149000000Y-106780000D01*
X118860000Y-83980000D02*
X118860000Y-84980000D01*
X115080000Y-106780000D02*
X115080000Y-105780000D01*
X118860000Y-83980000D02*
X115080000Y-83980000D01*
X113930000Y-73880000D02*
X113930000Y-121880000D01*
X152780000Y-83980000D02*
X149000000Y-83980000D01*
X150430000Y-70380000D02*
X117430000Y-70380000D01*
X117430000Y-125380000D02*
X150430000Y-125380000D01*
X117430000Y-70380000D02*
G75*
G03*
X113930000Y-73880000I-1J-3499999D01*
G01*
X150430000Y-125380000D02*
G75*
G03*
X153930000Y-121880000I1J3499999D01*
G01*
X153930000Y-73880000D02*
G75*
G03*
X150430000Y-70380000I-3499999J1D01*
G01*
X113930000Y-121880000D02*
G75*
G03*
X117430000Y-125380000I3499999J-1D01*
G01*
D12*
%TO.C,P2*%
X147515000Y-59330000D02*
X159215000Y-59330000D01*
X159215000Y-69330000D02*
X147515000Y-69330000D01*
X159215000Y-59330000D02*
X159215000Y-69330000D01*
X147515000Y-69330000D02*
X147515000Y-59330000D01*
D11*
%TO.C,R1*%
X157007742Y-100007500D02*
X157482258Y-100007500D01*
X157007742Y-101052500D02*
X157482258Y-101052500D01*
%TO.C,J1*%
X195930000Y-126535000D02*
X201130000Y-126535000D01*
X195930000Y-75615000D02*
X197260000Y-75615000D01*
X195930000Y-78215000D02*
X198530000Y-78215000D01*
X198530000Y-75615000D02*
X201130000Y-75615000D01*
X195930000Y-78215000D02*
X195930000Y-126535000D01*
X195930000Y-76945000D02*
X195930000Y-75615000D01*
X201130000Y-75615000D02*
X201130000Y-126535000D01*
X198530000Y-78215000D02*
X198530000Y-75615000D01*
%TO.C,R9*%
X188717258Y-95792500D02*
X188242742Y-95792500D01*
X188717258Y-94747500D02*
X188242742Y-94747500D01*
%TD*%
M02*
